<?xml version="1.0" encoding="utf-8" standalone="no"?>
<!DOCTYPE svg PUBLIC "-//W3C//DTD SVG 1.1//EN"
  "http://www.w3.org/Graphics/SVG/1.1/DTD/svg11.dtd">
<svg xmlns:xlink="http://www.w3.org/1999/xlink" width="460.8pt" height="345.6pt" viewBox="0 0 460.8 345.6" xmlns="http://www.w3.org/2000/svg" version="1.1">
 <metadata>
  <rdf:RDF xmlns:dc="http://purl.org/dc/elements/1.1/" xmlns:cc="http://creativecommons.org/ns#" xmlns:rdf="http://www.w3.org/1999/02/22-rdf-syntax-ns#">
   <cc:Work>
    <dc:type rdf:resource="http://purl.org/dc/dcmitype/StillImage"/>
    <dc:date>2024-03-19T11:03:24.562986</dc:date>
    <dc:format>image/svg+xml</dc:format>
    <dc:creator>
     <cc:Agent>
      <dc:title>Matplotlib v3.8.0, https://matplotlib.org/</dc:title>
     </cc:Agent>
    </dc:creator>
   </cc:Work>
  </rdf:RDF>
 </metadata>
 <defs>
  <style type="text/css">*{stroke-linejoin: round; stroke-linecap: butt}</style>
 </defs>
 <g id="figure_1">
  <g id="patch_1">
   <path d="M 0 345.6 
L 460.8 345.6 
L 460.8 0 
L 0 0 
z
" style="fill: #ffffff"/>
  </g>
  <g id="axes_1">
   <g id="patch_2">
    <path d="M 57.6 307.584 
L 414.72 307.584 
L 414.72 41.472 
L 57.6 41.472 
z
" style="fill: #ffffff"/>
   </g>
   <g id="patch_3">
    <path d="M 73.832727 307.584 
L 77.840808 307.584 
L 77.840808 45.63 
L 73.832727 45.63 
z
" clip-path="url(#pacde2cd7b1)" style="fill: #1f77b4"/>
   </g>
   <g id="patch_4">
    <path d="M 78.842828 307.584 
L 82.850909 307.584 
L 82.850909 307.584 
L 78.842828 307.584 
z
" clip-path="url(#pacde2cd7b1)" style="fill: #1f77b4"/>
   </g>
   <g id="patch_5">
    <path d="M 83.852929 307.584 
L 87.86101 307.584 
L 87.86101 307.584 
L 83.852929 307.584 
z
" clip-path="url(#pacde2cd7b1)" style="fill: #1f77b4"/>
   </g>
   <g id="patch_6">
    <path d="M 88.86303 307.584 
L 92.871111 307.584 
L 92.871111 307.584 
L 88.86303 307.584 
z
" clip-path="url(#pacde2cd7b1)" style="fill: #1f77b4"/>
   </g>
   <g id="patch_7">
    <path d="M 93.873131 307.584 
L 97.881212 307.584 
L 97.881212 307.584 
L 93.873131 307.584 
z
" clip-path="url(#pacde2cd7b1)" style="fill: #1f77b4"/>
   </g>
   <g id="patch_8">
    <path d="M 98.883232 307.584 
L 102.891313 307.584 
L 102.891313 307.584 
L 98.883232 307.584 
z
" clip-path="url(#pacde2cd7b1)" style="fill: #1f77b4"/>
   </g>
   <g id="patch_9">
    <path d="M 103.893333 307.584 
L 107.901414 307.584 
L 107.901414 307.584 
L 103.893333 307.584 
z
" clip-path="url(#pacde2cd7b1)" style="fill: #1f77b4"/>
   </g>
   <g id="patch_10">
    <path d="M 108.903434 307.584 
L 112.911515 307.584 
L 112.911515 303.426 
L 108.903434 303.426 
z
" clip-path="url(#pacde2cd7b1)" style="fill: #1f77b4"/>
   </g>
   <g id="patch_11">
    <path d="M 113.913535 307.584 
L 117.921616 307.584 
L 117.921616 307.584 
L 113.913535 307.584 
z
" clip-path="url(#pacde2cd7b1)" style="fill: #1f77b4"/>
   </g>
   <g id="patch_12">
    <path d="M 118.923636 307.584 
L 122.931717 307.584 
L 122.931717 307.584 
L 118.923636 307.584 
z
" clip-path="url(#pacde2cd7b1)" style="fill: #1f77b4"/>
   </g>
   <g id="patch_13">
    <path d="M 123.933737 307.584 
L 127.941818 307.584 
L 127.941818 307.584 
L 123.933737 307.584 
z
" clip-path="url(#pacde2cd7b1)" style="fill: #1f77b4"/>
   </g>
   <g id="patch_14">
    <path d="M 128.943838 307.584 
L 132.951919 307.584 
L 132.951919 307.584 
L 128.943838 307.584 
z
" clip-path="url(#pacde2cd7b1)" style="fill: #1f77b4"/>
   </g>
   <g id="patch_15">
    <path d="M 133.953939 307.584 
L 137.96202 307.584 
L 137.96202 303.426 
L 133.953939 303.426 
z
" clip-path="url(#pacde2cd7b1)" style="fill: #1f77b4"/>
   </g>
   <g id="patch_16">
    <path d="M 138.96404 307.584 
L 142.972121 307.584 
L 142.972121 307.584 
L 138.96404 307.584 
z
" clip-path="url(#pacde2cd7b1)" style="fill: #1f77b4"/>
   </g>
   <g id="patch_17">
    <path d="M 143.974141 307.584 
L 147.982222 307.584 
L 147.982222 299.268 
L 143.974141 299.268 
z
" clip-path="url(#pacde2cd7b1)" style="fill: #1f77b4"/>
   </g>
   <g id="patch_18">
    <path d="M 148.984242 307.584 
L 152.992323 307.584 
L 152.992323 307.584 
L 148.984242 307.584 
z
" clip-path="url(#pacde2cd7b1)" style="fill: #1f77b4"/>
   </g>
   <g id="patch_19">
    <path d="M 153.994343 307.584 
L 158.002424 307.584 
L 158.002424 307.584 
L 153.994343 307.584 
z
" clip-path="url(#pacde2cd7b1)" style="fill: #1f77b4"/>
   </g>
   <g id="patch_20">
    <path d="M 159.004444 307.584 
L 163.012525 307.584 
L 163.012525 307.584 
L 159.004444 307.584 
z
" clip-path="url(#pacde2cd7b1)" style="fill: #1f77b4"/>
   </g>
   <g id="patch_21">
    <path d="M 164.014545 307.584 
L 168.022626 307.584 
L 168.022626 307.584 
L 164.014545 307.584 
z
" clip-path="url(#pacde2cd7b1)" style="fill: #1f77b4"/>
   </g>
   <g id="patch_22">
    <path d="M 169.024646 307.584 
L 173.032727 307.584 
L 173.032727 307.584 
L 169.024646 307.584 
z
" clip-path="url(#pacde2cd7b1)" style="fill: #1f77b4"/>
   </g>
   <g id="patch_23">
    <path d="M 174.034747 307.584 
L 178.042828 307.584 
L 178.042828 307.584 
L 174.034747 307.584 
z
" clip-path="url(#pacde2cd7b1)" style="fill: #1f77b4"/>
   </g>
   <g id="patch_24">
    <path d="M 179.044848 307.584 
L 183.052929 307.584 
L 183.052929 307.584 
L 179.044848 307.584 
z
" clip-path="url(#pacde2cd7b1)" style="fill: #1f77b4"/>
   </g>
   <g id="patch_25">
    <path d="M 184.054949 307.584 
L 188.06303 307.584 
L 188.06303 307.584 
L 184.054949 307.584 
z
" clip-path="url(#pacde2cd7b1)" style="fill: #1f77b4"/>
   </g>
   <g id="patch_26">
    <path d="M 189.065051 307.584 
L 193.073131 307.584 
L 193.073131 307.584 
L 189.065051 307.584 
z
" clip-path="url(#pacde2cd7b1)" style="fill: #1f77b4"/>
   </g>
   <g id="patch_27">
    <path d="M 194.075152 307.584 
L 198.083232 307.584 
L 198.083232 307.584 
L 194.075152 307.584 
z
" clip-path="url(#pacde2cd7b1)" style="fill: #1f77b4"/>
   </g>
   <g id="patch_28">
    <path d="M 199.085253 307.584 
L 203.093333 307.584 
L 203.093333 307.584 
L 199.085253 307.584 
z
" clip-path="url(#pacde2cd7b1)" style="fill: #1f77b4"/>
   </g>
   <g id="patch_29">
    <path d="M 204.095354 307.584 
L 208.103434 307.584 
L 208.103434 307.584 
L 204.095354 307.584 
z
" clip-path="url(#pacde2cd7b1)" style="fill: #1f77b4"/>
   </g>
   <g id="patch_30">
    <path d="M 209.105455 307.584 
L 213.113535 307.584 
L 213.113535 307.584 
L 209.105455 307.584 
z
" clip-path="url(#pacde2cd7b1)" style="fill: #1f77b4"/>
   </g>
   <g id="patch_31">
    <path d="M 214.115556 307.584 
L 218.123636 307.584 
L 218.123636 307.584 
L 214.115556 307.584 
z
" clip-path="url(#pacde2cd7b1)" style="fill: #1f77b4"/>
   </g>
   <g id="patch_32">
    <path d="M 219.125657 307.584 
L 223.133737 307.584 
L 223.133737 307.584 
L 219.125657 307.584 
z
" clip-path="url(#pacde2cd7b1)" style="fill: #1f77b4"/>
   </g>
   <g id="patch_33">
    <path d="M 224.135758 307.584 
L 228.143838 307.584 
L 228.143838 307.584 
L 224.135758 307.584 
z
" clip-path="url(#pacde2cd7b1)" style="fill: #1f77b4"/>
   </g>
   <g id="patch_34">
    <path d="M 229.145859 307.584 
L 233.153939 307.584 
L 233.153939 307.584 
L 229.145859 307.584 
z
" clip-path="url(#pacde2cd7b1)" style="fill: #1f77b4"/>
   </g>
   <g id="patch_35">
    <path d="M 234.15596 307.584 
L 238.16404 307.584 
L 238.16404 307.584 
L 234.15596 307.584 
z
" clip-path="url(#pacde2cd7b1)" style="fill: #1f77b4"/>
   </g>
   <g id="patch_36">
    <path d="M 239.166061 307.584 
L 243.174141 307.584 
L 243.174141 295.11 
L 239.166061 295.11 
z
" clip-path="url(#pacde2cd7b1)" style="fill: #1f77b4"/>
   </g>
   <g id="patch_37">
    <path d="M 244.176162 307.584 
L 248.184242 307.584 
L 248.184242 307.584 
L 244.176162 307.584 
z
" clip-path="url(#pacde2cd7b1)" style="fill: #1f77b4"/>
   </g>
   <g id="patch_38">
    <path d="M 249.186263 307.584 
L 253.194343 307.584 
L 253.194343 307.584 
L 249.186263 307.584 
z
" clip-path="url(#pacde2cd7b1)" style="fill: #1f77b4"/>
   </g>
   <g id="patch_39">
    <path d="M 254.196364 307.584 
L 258.204444 307.584 
L 258.204444 307.584 
L 254.196364 307.584 
z
" clip-path="url(#pacde2cd7b1)" style="fill: #1f77b4"/>
   </g>
   <g id="patch_40">
    <path d="M 259.206465 307.584 
L 263.214545 307.584 
L 263.214545 307.584 
L 259.206465 307.584 
z
" clip-path="url(#pacde2cd7b1)" style="fill: #1f77b4"/>
   </g>
   <g id="patch_41">
    <path d="M 264.216566 307.584 
L 268.224646 307.584 
L 268.224646 307.584 
L 264.216566 307.584 
z
" clip-path="url(#pacde2cd7b1)" style="fill: #1f77b4"/>
   </g>
   <g id="patch_42">
    <path d="M 269.226667 307.584 
L 273.234747 307.584 
L 273.234747 307.584 
L 269.226667 307.584 
z
" clip-path="url(#pacde2cd7b1)" style="fill: #1f77b4"/>
   </g>
   <g id="patch_43">
    <path d="M 274.236768 307.584 
L 278.244848 307.584 
L 278.244848 307.584 
L 274.236768 307.584 
z
" clip-path="url(#pacde2cd7b1)" style="fill: #1f77b4"/>
   </g>
   <g id="patch_44">
    <path d="M 279.246869 307.584 
L 283.254949 307.584 
L 283.254949 303.426 
L 279.246869 303.426 
z
" clip-path="url(#pacde2cd7b1)" style="fill: #1f77b4"/>
   </g>
   <g id="patch_45">
    <path d="M 284.25697 307.584 
L 288.265051 307.584 
L 288.265051 307.584 
L 284.25697 307.584 
z
" clip-path="url(#pacde2cd7b1)" style="fill: #1f77b4"/>
   </g>
   <g id="patch_46">
    <path d="M 289.267071 307.584 
L 293.275152 307.584 
L 293.275152 307.584 
L 289.267071 307.584 
z
" clip-path="url(#pacde2cd7b1)" style="fill: #1f77b4"/>
   </g>
   <g id="patch_47">
    <path d="M 294.277172 307.584 
L 298.285253 307.584 
L 298.285253 307.584 
L 294.277172 307.584 
z
" clip-path="url(#pacde2cd7b1)" style="fill: #1f77b4"/>
   </g>
   <g id="patch_48">
    <path d="M 299.287273 307.584 
L 303.295354 307.584 
L 303.295354 307.584 
L 299.287273 307.584 
z
" clip-path="url(#pacde2cd7b1)" style="fill: #1f77b4"/>
   </g>
   <g id="patch_49">
    <path d="M 304.297374 307.584 
L 308.305455 307.584 
L 308.305455 303.426 
L 304.297374 303.426 
z
" clip-path="url(#pacde2cd7b1)" style="fill: #1f77b4"/>
   </g>
   <g id="patch_50">
    <path d="M 309.307475 307.584 
L 313.315556 307.584 
L 313.315556 307.584 
L 309.307475 307.584 
z
" clip-path="url(#pacde2cd7b1)" style="fill: #1f77b4"/>
   </g>
   <g id="patch_51">
    <path d="M 314.317576 307.584 
L 318.325657 307.584 
L 318.325657 307.584 
L 314.317576 307.584 
z
" clip-path="url(#pacde2cd7b1)" style="fill: #1f77b4"/>
   </g>
   <g id="patch_52">
    <path d="M 319.327677 307.584 
L 323.335758 307.584 
L 323.335758 307.584 
L 319.327677 307.584 
z
" clip-path="url(#pacde2cd7b1)" style="fill: #1f77b4"/>
   </g>
   <g id="patch_53">
    <path d="M 324.337778 307.584 
L 328.345859 307.584 
L 328.345859 307.584 
L 324.337778 307.584 
z
" clip-path="url(#pacde2cd7b1)" style="fill: #1f77b4"/>
   </g>
   <g id="patch_54">
    <path d="M 329.347879 307.584 
L 333.35596 307.584 
L 333.35596 307.584 
L 329.347879 307.584 
z
" clip-path="url(#pacde2cd7b1)" style="fill: #1f77b4"/>
   </g>
   <g id="patch_55">
    <path d="M 334.35798 307.584 
L 338.366061 307.584 
L 338.366061 307.584 
L 334.35798 307.584 
z
" clip-path="url(#pacde2cd7b1)" style="fill: #1f77b4"/>
   </g>
   <g id="patch_56">
    <path d="M 339.368081 307.584 
L 343.376162 307.584 
L 343.376162 307.584 
L 339.368081 307.584 
z
" clip-path="url(#pacde2cd7b1)" style="fill: #1f77b4"/>
   </g>
   <g id="patch_57">
    <path d="M 344.378182 307.584 
L 348.386263 307.584 
L 348.386263 307.584 
L 344.378182 307.584 
z
" clip-path="url(#pacde2cd7b1)" style="fill: #1f77b4"/>
   </g>
   <g id="patch_58">
    <path d="M 349.388283 307.584 
L 353.396364 307.584 
L 353.396364 307.584 
L 349.388283 307.584 
z
" clip-path="url(#pacde2cd7b1)" style="fill: #1f77b4"/>
   </g>
   <g id="patch_59">
    <path d="M 354.398384 307.584 
L 358.406465 307.584 
L 358.406465 307.584 
L 354.398384 307.584 
z
" clip-path="url(#pacde2cd7b1)" style="fill: #1f77b4"/>
   </g>
   <g id="patch_60">
    <path d="M 359.408485 307.584 
L 363.416566 307.584 
L 363.416566 307.584 
L 359.408485 307.584 
z
" clip-path="url(#pacde2cd7b1)" style="fill: #1f77b4"/>
   </g>
   <g id="patch_61">
    <path d="M 364.418586 307.584 
L 368.426667 307.584 
L 368.426667 307.584 
L 364.418586 307.584 
z
" clip-path="url(#pacde2cd7b1)" style="fill: #1f77b4"/>
   </g>
   <g id="patch_62">
    <path d="M 369.428687 307.584 
L 373.436768 307.584 
L 373.436768 307.584 
L 369.428687 307.584 
z
" clip-path="url(#pacde2cd7b1)" style="fill: #1f77b4"/>
   </g>
   <g id="patch_63">
    <path d="M 374.438788 307.584 
L 378.446869 307.584 
L 378.446869 307.584 
L 374.438788 307.584 
z
" clip-path="url(#pacde2cd7b1)" style="fill: #1f77b4"/>
   </g>
   <g id="patch_64">
    <path d="M 379.448889 307.584 
L 383.45697 307.584 
L 383.45697 307.584 
L 379.448889 307.584 
z
" clip-path="url(#pacde2cd7b1)" style="fill: #1f77b4"/>
   </g>
   <g id="patch_65">
    <path d="M 384.45899 307.584 
L 388.467071 307.584 
L 388.467071 307.584 
L 384.45899 307.584 
z
" clip-path="url(#pacde2cd7b1)" style="fill: #1f77b4"/>
   </g>
   <g id="patch_66">
    <path d="M 389.469091 307.584 
L 393.477172 307.584 
L 393.477172 307.584 
L 389.469091 307.584 
z
" clip-path="url(#pacde2cd7b1)" style="fill: #1f77b4"/>
   </g>
   <g id="patch_67">
    <path d="M 394.479192 307.584 
L 398.487273 307.584 
L 398.487273 307.584 
L 394.479192 307.584 
z
" clip-path="url(#pacde2cd7b1)" style="fill: #1f77b4"/>
   </g>
   <g id="patch_68">
    <path d="M 73.832727 45.63 
L 77.840808 45.63 
L 77.840808 41.472 
L 73.832727 41.472 
z
" clip-path="url(#pacde2cd7b1)" style="fill: #ff7f0e"/>
   </g>
   <g id="patch_69">
    <path d="M 78.842828 307.584 
L 82.850909 307.584 
L 82.850909 303.426 
L 78.842828 303.426 
z
" clip-path="url(#pacde2cd7b1)" style="fill: #ff7f0e"/>
   </g>
   <g id="patch_70">
    <path d="M 83.852929 307.584 
L 87.86101 307.584 
L 87.86101 307.584 
L 83.852929 307.584 
z
" clip-path="url(#pacde2cd7b1)" style="fill: #ff7f0e"/>
   </g>
   <g id="patch_71">
    <path d="M 88.86303 307.584 
L 92.871111 307.584 
L 92.871111 307.584 
L 88.86303 307.584 
z
" clip-path="url(#pacde2cd7b1)" style="fill: #ff7f0e"/>
   </g>
   <g id="patch_72">
    <path d="M 93.873131 307.584 
L 97.881212 307.584 
L 97.881212 307.584 
L 93.873131 307.584 
z
" clip-path="url(#pacde2cd7b1)" style="fill: #ff7f0e"/>
   </g>
   <g id="patch_73">
    <path d="M 98.883232 307.584 
L 102.891313 307.584 
L 102.891313 307.584 
L 98.883232 307.584 
z
" clip-path="url(#pacde2cd7b1)" style="fill: #ff7f0e"/>
   </g>
   <g id="patch_74">
    <path d="M 103.893333 307.584 
L 107.901414 307.584 
L 107.901414 307.584 
L 103.893333 307.584 
z
" clip-path="url(#pacde2cd7b1)" style="fill: #ff7f0e"/>
   </g>
   <g id="patch_75">
    <path d="M 108.903434 303.426 
L 112.911515 303.426 
L 112.911515 303.426 
L 108.903434 303.426 
z
" clip-path="url(#pacde2cd7b1)" style="fill: #ff7f0e"/>
   </g>
   <g id="patch_76">
    <path d="M 113.913535 307.584 
L 117.921616 307.584 
L 117.921616 307.584 
L 113.913535 307.584 
z
" clip-path="url(#pacde2cd7b1)" style="fill: #ff7f0e"/>
   </g>
   <g id="patch_77">
    <path d="M 118.923636 307.584 
L 122.931717 307.584 
L 122.931717 299.268 
L 118.923636 299.268 
z
" clip-path="url(#pacde2cd7b1)" style="fill: #ff7f0e"/>
   </g>
   <g id="patch_78">
    <path d="M 123.933737 307.584 
L 127.941818 307.584 
L 127.941818 232.74 
L 123.933737 232.74 
z
" clip-path="url(#pacde2cd7b1)" style="fill: #ff7f0e"/>
   </g>
   <g id="patch_79">
    <path d="M 128.943838 307.584 
L 132.951919 307.584 
L 132.951919 307.584 
L 128.943838 307.584 
z
" clip-path="url(#pacde2cd7b1)" style="fill: #ff7f0e"/>
   </g>
   <g id="patch_80">
    <path d="M 133.953939 303.426 
L 137.96202 303.426 
L 137.96202 299.268 
L 133.953939 299.268 
z
" clip-path="url(#pacde2cd7b1)" style="fill: #ff7f0e"/>
   </g>
   <g id="patch_81">
    <path d="M 138.96404 307.584 
L 142.972121 307.584 
L 142.972121 295.11 
L 138.96404 295.11 
z
" clip-path="url(#pacde2cd7b1)" style="fill: #ff7f0e"/>
   </g>
   <g id="patch_82">
    <path d="M 143.974141 299.268 
L 147.982222 299.268 
L 147.982222 153.738 
L 143.974141 153.738 
z
" clip-path="url(#pacde2cd7b1)" style="fill: #ff7f0e"/>
   </g>
   <g id="patch_83">
    <path d="M 148.984242 307.584 
L 152.992323 307.584 
L 152.992323 307.584 
L 148.984242 307.584 
z
" clip-path="url(#pacde2cd7b1)" style="fill: #ff7f0e"/>
   </g>
   <g id="patch_84">
    <path d="M 153.994343 307.584 
L 158.002424 307.584 
L 158.002424 307.584 
L 153.994343 307.584 
z
" clip-path="url(#pacde2cd7b1)" style="fill: #ff7f0e"/>
   </g>
   <g id="patch_85">
    <path d="M 159.004444 307.584 
L 163.012525 307.584 
L 163.012525 303.426 
L 159.004444 303.426 
z
" clip-path="url(#pacde2cd7b1)" style="fill: #ff7f0e"/>
   </g>
   <g id="patch_86">
    <path d="M 164.014545 307.584 
L 168.022626 307.584 
L 168.022626 303.426 
L 164.014545 303.426 
z
" clip-path="url(#pacde2cd7b1)" style="fill: #ff7f0e"/>
   </g>
   <g id="patch_87">
    <path d="M 169.024646 307.584 
L 173.032727 307.584 
L 173.032727 157.896 
L 169.024646 157.896 
z
" clip-path="url(#pacde2cd7b1)" style="fill: #ff7f0e"/>
   </g>
   <g id="patch_88">
    <path d="M 174.034747 307.584 
L 178.042828 307.584 
L 178.042828 266.004 
L 174.034747 266.004 
z
" clip-path="url(#pacde2cd7b1)" style="fill: #ff7f0e"/>
   </g>
   <g id="patch_89">
    <path d="M 179.044848 307.584 
L 183.052929 307.584 
L 183.052929 303.426 
L 179.044848 303.426 
z
" clip-path="url(#pacde2cd7b1)" style="fill: #ff7f0e"/>
   </g>
   <g id="patch_90">
    <path d="M 184.054949 307.584 
L 188.06303 307.584 
L 188.06303 307.584 
L 184.054949 307.584 
z
" clip-path="url(#pacde2cd7b1)" style="fill: #ff7f0e"/>
   </g>
   <g id="patch_91">
    <path d="M 189.065051 307.584 
L 193.073131 307.584 
L 193.073131 307.584 
L 189.065051 307.584 
z
" clip-path="url(#pacde2cd7b1)" style="fill: #ff7f0e"/>
   </g>
   <g id="patch_92">
    <path d="M 194.075152 307.584 
L 198.083232 307.584 
L 198.083232 307.584 
L 194.075152 307.584 
z
" clip-path="url(#pacde2cd7b1)" style="fill: #ff7f0e"/>
   </g>
   <g id="patch_93">
    <path d="M 199.085253 307.584 
L 203.093333 307.584 
L 203.093333 307.584 
L 199.085253 307.584 
z
" clip-path="url(#pacde2cd7b1)" style="fill: #ff7f0e"/>
   </g>
   <g id="patch_94">
    <path d="M 204.095354 307.584 
L 208.103434 307.584 
L 208.103434 62.262 
L 204.095354 62.262 
z
" clip-path="url(#pacde2cd7b1)" style="fill: #ff7f0e"/>
   </g>
   <g id="patch_95">
    <path d="M 209.105455 307.584 
L 213.113535 307.584 
L 213.113535 307.584 
L 209.105455 307.584 
z
" clip-path="url(#pacde2cd7b1)" style="fill: #ff7f0e"/>
   </g>
   <g id="patch_96">
    <path d="M 214.115556 307.584 
L 218.123636 307.584 
L 218.123636 307.584 
L 214.115556 307.584 
z
" clip-path="url(#pacde2cd7b1)" style="fill: #ff7f0e"/>
   </g>
   <g id="patch_97">
    <path d="M 219.125657 307.584 
L 223.133737 307.584 
L 223.133737 307.584 
L 219.125657 307.584 
z
" clip-path="url(#pacde2cd7b1)" style="fill: #ff7f0e"/>
   </g>
   <g id="patch_98">
    <path d="M 224.135758 307.584 
L 228.143838 307.584 
L 228.143838 307.584 
L 224.135758 307.584 
z
" clip-path="url(#pacde2cd7b1)" style="fill: #ff7f0e"/>
   </g>
   <g id="patch_99">
    <path d="M 229.145859 307.584 
L 233.153939 307.584 
L 233.153939 295.11 
L 229.145859 295.11 
z
" clip-path="url(#pacde2cd7b1)" style="fill: #ff7f0e"/>
   </g>
   <g id="patch_100">
    <path d="M 234.15596 307.584 
L 238.16404 307.584 
L 238.16404 307.584 
L 234.15596 307.584 
z
" clip-path="url(#pacde2cd7b1)" style="fill: #ff7f0e"/>
   </g>
   <g id="patch_101">
    <path d="M 239.166061 295.11 
L 243.174141 295.11 
L 243.174141 290.952 
L 239.166061 290.952 
z
" clip-path="url(#pacde2cd7b1)" style="fill: #ff7f0e"/>
   </g>
   <g id="patch_102">
    <path d="M 244.176162 307.584 
L 248.184242 307.584 
L 248.184242 307.584 
L 244.176162 307.584 
z
" clip-path="url(#pacde2cd7b1)" style="fill: #ff7f0e"/>
   </g>
   <g id="patch_103">
    <path d="M 249.186263 307.584 
L 253.194343 307.584 
L 253.194343 299.268 
L 249.186263 299.268 
z
" clip-path="url(#pacde2cd7b1)" style="fill: #ff7f0e"/>
   </g>
   <g id="patch_104">
    <path d="M 254.196364 307.584 
L 258.204444 307.584 
L 258.204444 299.268 
L 254.196364 299.268 
z
" clip-path="url(#pacde2cd7b1)" style="fill: #ff7f0e"/>
   </g>
   <g id="patch_105">
    <path d="M 259.206465 307.584 
L 263.214545 307.584 
L 263.214545 282.636 
L 259.206465 282.636 
z
" clip-path="url(#pacde2cd7b1)" style="fill: #ff7f0e"/>
   </g>
   <g id="patch_106">
    <path d="M 264.216566 307.584 
L 268.224646 307.584 
L 268.224646 307.584 
L 264.216566 307.584 
z
" clip-path="url(#pacde2cd7b1)" style="fill: #ff7f0e"/>
   </g>
   <g id="patch_107">
    <path d="M 269.226667 307.584 
L 273.234747 307.584 
L 273.234747 290.952 
L 269.226667 290.952 
z
" clip-path="url(#pacde2cd7b1)" style="fill: #ff7f0e"/>
   </g>
   <g id="patch_108">
    <path d="M 274.236768 307.584 
L 278.244848 307.584 
L 278.244848 307.584 
L 274.236768 307.584 
z
" clip-path="url(#pacde2cd7b1)" style="fill: #ff7f0e"/>
   </g>
   <g id="patch_109">
    <path d="M 279.246869 303.426 
L 283.254949 303.426 
L 283.254949 286.794 
L 279.246869 286.794 
z
" clip-path="url(#pacde2cd7b1)" style="fill: #ff7f0e"/>
   </g>
   <g id="patch_110">
    <path d="M 284.25697 307.584 
L 288.265051 307.584 
L 288.265051 295.11 
L 284.25697 295.11 
z
" clip-path="url(#pacde2cd7b1)" style="fill: #ff7f0e"/>
   </g>
   <g id="patch_111">
    <path d="M 289.267071 307.584 
L 293.275152 307.584 
L 293.275152 307.584 
L 289.267071 307.584 
z
" clip-path="url(#pacde2cd7b1)" style="fill: #ff7f0e"/>
   </g>
   <g id="patch_112">
    <path d="M 294.277172 307.584 
L 298.285253 307.584 
L 298.285253 224.424 
L 294.277172 224.424 
z
" clip-path="url(#pacde2cd7b1)" style="fill: #ff7f0e"/>
   </g>
   <g id="patch_113">
    <path d="M 299.287273 307.584 
L 303.295354 307.584 
L 303.295354 307.584 
L 299.287273 307.584 
z
" clip-path="url(#pacde2cd7b1)" style="fill: #ff7f0e"/>
   </g>
   <g id="patch_114">
    <path d="M 304.297374 303.426 
L 308.305455 303.426 
L 308.305455 286.794 
L 304.297374 286.794 
z
" clip-path="url(#pacde2cd7b1)" style="fill: #ff7f0e"/>
   </g>
   <g id="patch_115">
    <path d="M 309.307475 307.584 
L 313.315556 307.584 
L 313.315556 307.584 
L 309.307475 307.584 
z
" clip-path="url(#pacde2cd7b1)" style="fill: #ff7f0e"/>
   </g>
   <g id="patch_116">
    <path d="M 314.317576 307.584 
L 318.325657 307.584 
L 318.325657 307.584 
L 314.317576 307.584 
z
" clip-path="url(#pacde2cd7b1)" style="fill: #ff7f0e"/>
   </g>
   <g id="patch_117">
    <path d="M 319.327677 307.584 
L 323.335758 307.584 
L 323.335758 307.584 
L 319.327677 307.584 
z
" clip-path="url(#pacde2cd7b1)" style="fill: #ff7f0e"/>
   </g>
   <g id="patch_118">
    <path d="M 324.337778 307.584 
L 328.345859 307.584 
L 328.345859 307.584 
L 324.337778 307.584 
z
" clip-path="url(#pacde2cd7b1)" style="fill: #ff7f0e"/>
   </g>
   <g id="patch_119">
    <path d="M 329.347879 307.584 
L 333.35596 307.584 
L 333.35596 307.584 
L 329.347879 307.584 
z
" clip-path="url(#pacde2cd7b1)" style="fill: #ff7f0e"/>
   </g>
   <g id="patch_120">
    <path d="M 334.35798 307.584 
L 338.366061 307.584 
L 338.366061 307.584 
L 334.35798 307.584 
z
" clip-path="url(#pacde2cd7b1)" style="fill: #ff7f0e"/>
   </g>
   <g id="patch_121">
    <path d="M 339.368081 307.584 
L 343.376162 307.584 
L 343.376162 307.584 
L 339.368081 307.584 
z
" clip-path="url(#pacde2cd7b1)" style="fill: #ff7f0e"/>
   </g>
   <g id="patch_122">
    <path d="M 344.378182 307.584 
L 348.386263 307.584 
L 348.386263 307.584 
L 344.378182 307.584 
z
" clip-path="url(#pacde2cd7b1)" style="fill: #ff7f0e"/>
   </g>
   <g id="patch_123">
    <path d="M 349.388283 307.584 
L 353.396364 307.584 
L 353.396364 307.584 
L 349.388283 307.584 
z
" clip-path="url(#pacde2cd7b1)" style="fill: #ff7f0e"/>
   </g>
   <g id="patch_124">
    <path d="M 354.398384 307.584 
L 358.406465 307.584 
L 358.406465 307.584 
L 354.398384 307.584 
z
" clip-path="url(#pacde2cd7b1)" style="fill: #ff7f0e"/>
   </g>
   <g id="patch_125">
    <path d="M 359.408485 307.584 
L 363.416566 307.584 
L 363.416566 307.584 
L 359.408485 307.584 
z
" clip-path="url(#pacde2cd7b1)" style="fill: #ff7f0e"/>
   </g>
   <g id="patch_126">
    <path d="M 364.418586 307.584 
L 368.426667 307.584 
L 368.426667 307.584 
L 364.418586 307.584 
z
" clip-path="url(#pacde2cd7b1)" style="fill: #ff7f0e"/>
   </g>
   <g id="patch_127">
    <path d="M 369.428687 307.584 
L 373.436768 307.584 
L 373.436768 307.584 
L 369.428687 307.584 
z
" clip-path="url(#pacde2cd7b1)" style="fill: #ff7f0e"/>
   </g>
   <g id="patch_128">
    <path d="M 374.438788 307.584 
L 378.446869 307.584 
L 378.446869 307.584 
L 374.438788 307.584 
z
" clip-path="url(#pacde2cd7b1)" style="fill: #ff7f0e"/>
   </g>
   <g id="patch_129">
    <path d="M 379.448889 307.584 
L 383.45697 307.584 
L 383.45697 307.584 
L 379.448889 307.584 
z
" clip-path="url(#pacde2cd7b1)" style="fill: #ff7f0e"/>
   </g>
   <g id="patch_130">
    <path d="M 384.45899 307.584 
L 388.467071 307.584 
L 388.467071 307.584 
L 384.45899 307.584 
z
" clip-path="url(#pacde2cd7b1)" style="fill: #ff7f0e"/>
   </g>
   <g id="patch_131">
    <path d="M 389.469091 307.584 
L 393.477172 307.584 
L 393.477172 307.584 
L 389.469091 307.584 
z
" clip-path="url(#pacde2cd7b1)" style="fill: #ff7f0e"/>
   </g>
   <g id="patch_132">
    <path d="M 394.479192 307.584 
L 398.487273 307.584 
L 398.487273 307.584 
L 394.479192 307.584 
z
" clip-path="url(#pacde2cd7b1)" style="fill: #ff7f0e"/>
   </g>
   <g id="patch_133">
    <path d="M 73.832727 41.472 
L 77.840808 41.472 
L 77.840808 41.472 
L 73.832727 41.472 
z
" clip-path="url(#pacde2cd7b1)" style="fill: #2ca02c"/>
   </g>
   <g id="patch_134">
    <path d="M 78.842828 303.426 
L 82.850909 303.426 
L 82.850909 303.426 
L 78.842828 303.426 
z
" clip-path="url(#pacde2cd7b1)" style="fill: #2ca02c"/>
   </g>
   <g id="patch_135">
    <path d="M 83.852929 307.584 
L 87.86101 307.584 
L 87.86101 307.584 
L 83.852929 307.584 
z
" clip-path="url(#pacde2cd7b1)" style="fill: #2ca02c"/>
   </g>
   <g id="patch_136">
    <path d="M 88.86303 307.584 
L 92.871111 307.584 
L 92.871111 307.584 
L 88.86303 307.584 
z
" clip-path="url(#pacde2cd7b1)" style="fill: #2ca02c"/>
   </g>
   <g id="patch_137">
    <path d="M 93.873131 307.584 
L 97.881212 307.584 
L 97.881212 307.584 
L 93.873131 307.584 
z
" clip-path="url(#pacde2cd7b1)" style="fill: #2ca02c"/>
   </g>
   <g id="patch_138">
    <path d="M 98.883232 307.584 
L 102.891313 307.584 
L 102.891313 307.584 
L 98.883232 307.584 
z
" clip-path="url(#pacde2cd7b1)" style="fill: #2ca02c"/>
   </g>
   <g id="patch_139">
    <path d="M 103.893333 307.584 
L 107.901414 307.584 
L 107.901414 182.844 
L 103.893333 182.844 
z
" clip-path="url(#pacde2cd7b1)" style="fill: #2ca02c"/>
   </g>
   <g id="patch_140">
    <path d="M 108.903434 303.426 
L 112.911515 303.426 
L 112.911515 303.426 
L 108.903434 303.426 
z
" clip-path="url(#pacde2cd7b1)" style="fill: #2ca02c"/>
   </g>
   <g id="patch_141">
    <path d="M 113.913535 307.584 
L 117.921616 307.584 
L 117.921616 307.584 
L 113.913535 307.584 
z
" clip-path="url(#pacde2cd7b1)" style="fill: #2ca02c"/>
   </g>
   <g id="patch_142">
    <path d="M 118.923636 299.268 
L 122.931717 299.268 
L 122.931717 207.792 
L 118.923636 207.792 
z
" clip-path="url(#pacde2cd7b1)" style="fill: #2ca02c"/>
   </g>
   <g id="patch_143">
    <path d="M 123.933737 232.74 
L 127.941818 232.74 
L 127.941818 232.74 
L 123.933737 232.74 
z
" clip-path="url(#pacde2cd7b1)" style="fill: #2ca02c"/>
   </g>
   <g id="patch_144">
    <path d="M 128.943838 307.584 
L 132.951919 307.584 
L 132.951919 303.426 
L 128.943838 303.426 
z
" clip-path="url(#pacde2cd7b1)" style="fill: #2ca02c"/>
   </g>
   <g id="patch_145">
    <path d="M 133.953939 299.268 
L 137.96202 299.268 
L 137.96202 299.268 
L 133.953939 299.268 
z
" clip-path="url(#pacde2cd7b1)" style="fill: #2ca02c"/>
   </g>
   <g id="patch_146">
    <path d="M 138.96404 295.11 
L 142.972121 295.11 
L 142.972121 207.792 
L 138.96404 207.792 
z
" clip-path="url(#pacde2cd7b1)" style="fill: #2ca02c"/>
   </g>
   <g id="patch_147">
    <path d="M 143.974141 153.738 
L 147.982222 153.738 
L 147.982222 137.106 
L 143.974141 137.106 
z
" clip-path="url(#pacde2cd7b1)" style="fill: #2ca02c"/>
   </g>
   <g id="patch_148">
    <path d="M 148.984242 307.584 
L 152.992323 307.584 
L 152.992323 307.584 
L 148.984242 307.584 
z
" clip-path="url(#pacde2cd7b1)" style="fill: #2ca02c"/>
   </g>
   <g id="patch_149">
    <path d="M 153.994343 307.584 
L 158.002424 307.584 
L 158.002424 303.426 
L 153.994343 303.426 
z
" clip-path="url(#pacde2cd7b1)" style="fill: #2ca02c"/>
   </g>
   <g id="patch_150">
    <path d="M 159.004444 303.426 
L 163.012525 303.426 
L 163.012525 295.11 
L 159.004444 295.11 
z
" clip-path="url(#pacde2cd7b1)" style="fill: #2ca02c"/>
   </g>
   <g id="patch_151">
    <path d="M 164.014545 303.426 
L 168.022626 303.426 
L 168.022626 182.844 
L 164.014545 182.844 
z
" clip-path="url(#pacde2cd7b1)" style="fill: #2ca02c"/>
   </g>
   <g id="patch_152">
    <path d="M 169.024646 157.896 
L 173.032727 157.896 
L 173.032727 157.896 
L 169.024646 157.896 
z
" clip-path="url(#pacde2cd7b1)" style="fill: #2ca02c"/>
   </g>
   <g id="patch_153">
    <path d="M 174.034747 266.004 
L 178.042828 266.004 
L 178.042828 203.634 
L 174.034747 203.634 
z
" clip-path="url(#pacde2cd7b1)" style="fill: #2ca02c"/>
   </g>
   <g id="patch_154">
    <path d="M 179.044848 303.426 
L 183.052929 303.426 
L 183.052929 211.95 
L 179.044848 211.95 
z
" clip-path="url(#pacde2cd7b1)" style="fill: #2ca02c"/>
   </g>
   <g id="patch_155">
    <path d="M 184.054949 307.584 
L 188.06303 307.584 
L 188.06303 307.584 
L 184.054949 307.584 
z
" clip-path="url(#pacde2cd7b1)" style="fill: #2ca02c"/>
   </g>
   <g id="patch_156">
    <path d="M 189.065051 307.584 
L 193.073131 307.584 
L 193.073131 307.584 
L 189.065051 307.584 
z
" clip-path="url(#pacde2cd7b1)" style="fill: #2ca02c"/>
   </g>
   <g id="patch_157">
    <path d="M 194.075152 307.584 
L 198.083232 307.584 
L 198.083232 303.426 
L 194.075152 303.426 
z
" clip-path="url(#pacde2cd7b1)" style="fill: #2ca02c"/>
   </g>
   <g id="patch_158">
    <path d="M 199.085253 307.584 
L 203.093333 307.584 
L 203.093333 87.21 
L 199.085253 87.21 
z
" clip-path="url(#pacde2cd7b1)" style="fill: #2ca02c"/>
   </g>
   <g id="patch_159">
    <path d="M 204.095354 62.262 
L 208.103434 62.262 
L 208.103434 58.104 
L 204.095354 58.104 
z
" clip-path="url(#pacde2cd7b1)" style="fill: #2ca02c"/>
   </g>
   <g id="patch_160">
    <path d="M 209.105455 307.584 
L 213.113535 307.584 
L 213.113535 307.584 
L 209.105455 307.584 
z
" clip-path="url(#pacde2cd7b1)" style="fill: #2ca02c"/>
   </g>
   <g id="patch_161">
    <path d="M 214.115556 307.584 
L 218.123636 307.584 
L 218.123636 307.584 
L 214.115556 307.584 
z
" clip-path="url(#pacde2cd7b1)" style="fill: #2ca02c"/>
   </g>
   <g id="patch_162">
    <path d="M 219.125657 307.584 
L 223.133737 307.584 
L 223.133737 307.584 
L 219.125657 307.584 
z
" clip-path="url(#pacde2cd7b1)" style="fill: #2ca02c"/>
   </g>
   <g id="patch_163">
    <path d="M 224.135758 307.584 
L 228.143838 307.584 
L 228.143838 307.584 
L 224.135758 307.584 
z
" clip-path="url(#pacde2cd7b1)" style="fill: #2ca02c"/>
   </g>
   <g id="patch_164">
    <path d="M 229.145859 295.11 
L 233.153939 295.11 
L 233.153939 286.794 
L 229.145859 286.794 
z
" clip-path="url(#pacde2cd7b1)" style="fill: #2ca02c"/>
   </g>
   <g id="patch_165">
    <path d="M 234.15596 307.584 
L 238.16404 307.584 
L 238.16404 303.426 
L 234.15596 303.426 
z
" clip-path="url(#pacde2cd7b1)" style="fill: #2ca02c"/>
   </g>
   <g id="patch_166">
    <path d="M 239.166061 290.952 
L 243.174141 290.952 
L 243.174141 266.004 
L 239.166061 266.004 
z
" clip-path="url(#pacde2cd7b1)" style="fill: #2ca02c"/>
   </g>
   <g id="patch_167">
    <path d="M 244.176162 307.584 
L 248.184242 307.584 
L 248.184242 307.584 
L 244.176162 307.584 
z
" clip-path="url(#pacde2cd7b1)" style="fill: #2ca02c"/>
   </g>
   <g id="patch_168">
    <path d="M 249.186263 299.268 
L 253.194343 299.268 
L 253.194343 290.952 
L 249.186263 290.952 
z
" clip-path="url(#pacde2cd7b1)" style="fill: #2ca02c"/>
   </g>
   <g id="patch_169">
    <path d="M 254.196364 299.268 
L 258.204444 299.268 
L 258.204444 211.95 
L 254.196364 211.95 
z
" clip-path="url(#pacde2cd7b1)" style="fill: #2ca02c"/>
   </g>
   <g id="patch_170">
    <path d="M 259.206465 282.636 
L 263.214545 282.636 
L 263.214545 270.162 
L 259.206465 270.162 
z
" clip-path="url(#pacde2cd7b1)" style="fill: #2ca02c"/>
   </g>
   <g id="patch_171">
    <path d="M 264.216566 307.584 
L 268.224646 307.584 
L 268.224646 307.584 
L 264.216566 307.584 
z
" clip-path="url(#pacde2cd7b1)" style="fill: #2ca02c"/>
   </g>
   <g id="patch_172">
    <path d="M 269.226667 290.952 
L 273.234747 290.952 
L 273.234747 286.794 
L 269.226667 286.794 
z
" clip-path="url(#pacde2cd7b1)" style="fill: #2ca02c"/>
   </g>
   <g id="patch_173">
    <path d="M 274.236768 307.584 
L 278.244848 307.584 
L 278.244848 303.426 
L 274.236768 303.426 
z
" clip-path="url(#pacde2cd7b1)" style="fill: #2ca02c"/>
   </g>
   <g id="patch_174">
    <path d="M 279.246869 286.794 
L 283.254949 286.794 
L 283.254949 286.794 
L 279.246869 286.794 
z
" clip-path="url(#pacde2cd7b1)" style="fill: #2ca02c"/>
   </g>
   <g id="patch_175">
    <path d="M 284.25697 295.11 
L 288.265051 295.11 
L 288.265051 286.794 
L 284.25697 286.794 
z
" clip-path="url(#pacde2cd7b1)" style="fill: #2ca02c"/>
   </g>
   <g id="patch_176">
    <path d="M 289.267071 307.584 
L 293.275152 307.584 
L 293.275152 295.11 
L 289.267071 295.11 
z
" clip-path="url(#pacde2cd7b1)" style="fill: #2ca02c"/>
   </g>
   <g id="patch_177">
    <path d="M 294.277172 224.424 
L 298.285253 224.424 
L 298.285253 216.108 
L 294.277172 216.108 
z
" clip-path="url(#pacde2cd7b1)" style="fill: #2ca02c"/>
   </g>
   <g id="patch_178">
    <path d="M 299.287273 307.584 
L 303.295354 307.584 
L 303.295354 303.426 
L 299.287273 303.426 
z
" clip-path="url(#pacde2cd7b1)" style="fill: #2ca02c"/>
   </g>
   <g id="patch_179">
    <path d="M 304.297374 286.794 
L 308.305455 286.794 
L 308.305455 170.37 
L 304.297374 170.37 
z
" clip-path="url(#pacde2cd7b1)" style="fill: #2ca02c"/>
   </g>
   <g id="patch_180">
    <path d="M 309.307475 307.584 
L 313.315556 307.584 
L 313.315556 307.584 
L 309.307475 307.584 
z
" clip-path="url(#pacde2cd7b1)" style="fill: #2ca02c"/>
   </g>
   <g id="patch_181">
    <path d="M 314.317576 307.584 
L 318.325657 307.584 
L 318.325657 307.584 
L 314.317576 307.584 
z
" clip-path="url(#pacde2cd7b1)" style="fill: #2ca02c"/>
   </g>
   <g id="patch_182">
    <path d="M 319.327677 307.584 
L 323.335758 307.584 
L 323.335758 307.584 
L 319.327677 307.584 
z
" clip-path="url(#pacde2cd7b1)" style="fill: #2ca02c"/>
   </g>
   <g id="patch_183">
    <path d="M 324.337778 307.584 
L 328.345859 307.584 
L 328.345859 307.584 
L 324.337778 307.584 
z
" clip-path="url(#pacde2cd7b1)" style="fill: #2ca02c"/>
   </g>
   <g id="patch_184">
    <path d="M 329.347879 307.584 
L 333.35596 307.584 
L 333.35596 307.584 
L 329.347879 307.584 
z
" clip-path="url(#pacde2cd7b1)" style="fill: #2ca02c"/>
   </g>
   <g id="patch_185">
    <path d="M 334.35798 307.584 
L 338.366061 307.584 
L 338.366061 307.584 
L 334.35798 307.584 
z
" clip-path="url(#pacde2cd7b1)" style="fill: #2ca02c"/>
   </g>
   <g id="patch_186">
    <path d="M 339.368081 307.584 
L 343.376162 307.584 
L 343.376162 307.584 
L 339.368081 307.584 
z
" clip-path="url(#pacde2cd7b1)" style="fill: #2ca02c"/>
   </g>
   <g id="patch_187">
    <path d="M 344.378182 307.584 
L 348.386263 307.584 
L 348.386263 307.584 
L 344.378182 307.584 
z
" clip-path="url(#pacde2cd7b1)" style="fill: #2ca02c"/>
   </g>
   <g id="patch_188">
    <path d="M 349.388283 307.584 
L 353.396364 307.584 
L 353.396364 307.584 
L 349.388283 307.584 
z
" clip-path="url(#pacde2cd7b1)" style="fill: #2ca02c"/>
   </g>
   <g id="patch_189">
    <path d="M 354.398384 307.584 
L 358.406465 307.584 
L 358.406465 307.584 
L 354.398384 307.584 
z
" clip-path="url(#pacde2cd7b1)" style="fill: #2ca02c"/>
   </g>
   <g id="patch_190">
    <path d="M 359.408485 307.584 
L 363.416566 307.584 
L 363.416566 307.584 
L 359.408485 307.584 
z
" clip-path="url(#pacde2cd7b1)" style="fill: #2ca02c"/>
   </g>
   <g id="patch_191">
    <path d="M 364.418586 307.584 
L 368.426667 307.584 
L 368.426667 307.584 
L 364.418586 307.584 
z
" clip-path="url(#pacde2cd7b1)" style="fill: #2ca02c"/>
   </g>
   <g id="patch_192">
    <path d="M 369.428687 307.584 
L 373.436768 307.584 
L 373.436768 307.584 
L 369.428687 307.584 
z
" clip-path="url(#pacde2cd7b1)" style="fill: #2ca02c"/>
   </g>
   <g id="patch_193">
    <path d="M 374.438788 307.584 
L 378.446869 307.584 
L 378.446869 307.584 
L 374.438788 307.584 
z
" clip-path="url(#pacde2cd7b1)" style="fill: #2ca02c"/>
   </g>
   <g id="patch_194">
    <path d="M 379.448889 307.584 
L 383.45697 307.584 
L 383.45697 307.584 
L 379.448889 307.584 
z
" clip-path="url(#pacde2cd7b1)" style="fill: #2ca02c"/>
   </g>
   <g id="patch_195">
    <path d="M 384.45899 307.584 
L 388.467071 307.584 
L 388.467071 307.584 
L 384.45899 307.584 
z
" clip-path="url(#pacde2cd7b1)" style="fill: #2ca02c"/>
   </g>
   <g id="patch_196">
    <path d="M 389.469091 307.584 
L 393.477172 307.584 
L 393.477172 307.584 
L 389.469091 307.584 
z
" clip-path="url(#pacde2cd7b1)" style="fill: #2ca02c"/>
   </g>
   <g id="patch_197">
    <path d="M 394.479192 307.584 
L 398.487273 307.584 
L 398.487273 307.584 
L 394.479192 307.584 
z
" clip-path="url(#pacde2cd7b1)" style="fill: #2ca02c"/>
   </g>
   <g id="patch_198">
    <path d="M 73.832727 41.472 
L 77.840808 41.472 
L 77.840808 41.472 
L 73.832727 41.472 
z
" clip-path="url(#pacde2cd7b1)" style="fill: #d62728"/>
   </g>
   <g id="patch_199">
    <path d="M 78.842828 303.426 
L 82.850909 303.426 
L 82.850909 303.426 
L 78.842828 303.426 
z
" clip-path="url(#pacde2cd7b1)" style="fill: #d62728"/>
   </g>
   <g id="patch_200">
    <path d="M 83.852929 307.584 
L 87.86101 307.584 
L 87.86101 307.584 
L 83.852929 307.584 
z
" clip-path="url(#pacde2cd7b1)" style="fill: #d62728"/>
   </g>
   <g id="patch_201">
    <path d="M 88.86303 307.584 
L 92.871111 307.584 
L 92.871111 307.584 
L 88.86303 307.584 
z
" clip-path="url(#pacde2cd7b1)" style="fill: #d62728"/>
   </g>
   <g id="patch_202">
    <path d="M 93.873131 307.584 
L 97.881212 307.584 
L 97.881212 307.584 
L 93.873131 307.584 
z
" clip-path="url(#pacde2cd7b1)" style="fill: #d62728"/>
   </g>
   <g id="patch_203">
    <path d="M 98.883232 307.584 
L 102.891313 307.584 
L 102.891313 307.584 
L 98.883232 307.584 
z
" clip-path="url(#pacde2cd7b1)" style="fill: #d62728"/>
   </g>
   <g id="patch_204">
    <path d="M 103.893333 182.844 
L 107.901414 182.844 
L 107.901414 132.948 
L 103.893333 132.948 
z
" clip-path="url(#pacde2cd7b1)" style="fill: #d62728"/>
   </g>
   <g id="patch_205">
    <path d="M 108.903434 303.426 
L 112.911515 303.426 
L 112.911515 303.426 
L 108.903434 303.426 
z
" clip-path="url(#pacde2cd7b1)" style="fill: #d62728"/>
   </g>
   <g id="patch_206">
    <path d="M 113.913535 307.584 
L 117.921616 307.584 
L 117.921616 307.584 
L 113.913535 307.584 
z
" clip-path="url(#pacde2cd7b1)" style="fill: #d62728"/>
   </g>
   <g id="patch_207">
    <path d="M 118.923636 207.792 
L 122.931717 207.792 
L 122.931717 203.634 
L 118.923636 203.634 
z
" clip-path="url(#pacde2cd7b1)" style="fill: #d62728"/>
   </g>
   <g id="patch_208">
    <path d="M 123.933737 232.74 
L 127.941818 232.74 
L 127.941818 232.74 
L 123.933737 232.74 
z
" clip-path="url(#pacde2cd7b1)" style="fill: #d62728"/>
   </g>
   <g id="patch_209">
    <path d="M 128.943838 303.426 
L 132.951919 303.426 
L 132.951919 299.268 
L 128.943838 299.268 
z
" clip-path="url(#pacde2cd7b1)" style="fill: #d62728"/>
   </g>
   <g id="patch_210">
    <path d="M 133.953939 299.268 
L 137.96202 299.268 
L 137.96202 299.268 
L 133.953939 299.268 
z
" clip-path="url(#pacde2cd7b1)" style="fill: #d62728"/>
   </g>
   <g id="patch_211">
    <path d="M 138.96404 207.792 
L 142.972121 207.792 
L 142.972121 203.634 
L 138.96404 203.634 
z
" clip-path="url(#pacde2cd7b1)" style="fill: #d62728"/>
   </g>
   <g id="patch_212">
    <path d="M 143.974141 137.106 
L 147.982222 137.106 
L 147.982222 137.106 
L 143.974141 137.106 
z
" clip-path="url(#pacde2cd7b1)" style="fill: #d62728"/>
   </g>
   <g id="patch_213">
    <path d="M 148.984242 307.584 
L 152.992323 307.584 
L 152.992323 307.584 
L 148.984242 307.584 
z
" clip-path="url(#pacde2cd7b1)" style="fill: #d62728"/>
   </g>
   <g id="patch_214">
    <path d="M 153.994343 303.426 
L 158.002424 303.426 
L 158.002424 303.426 
L 153.994343 303.426 
z
" clip-path="url(#pacde2cd7b1)" style="fill: #d62728"/>
   </g>
   <g id="patch_215">
    <path d="M 159.004444 295.11 
L 163.012525 295.11 
L 163.012525 295.11 
L 159.004444 295.11 
z
" clip-path="url(#pacde2cd7b1)" style="fill: #d62728"/>
   </g>
   <g id="patch_216">
    <path d="M 164.014545 182.844 
L 168.022626 182.844 
L 168.022626 162.054 
L 164.014545 162.054 
z
" clip-path="url(#pacde2cd7b1)" style="fill: #d62728"/>
   </g>
   <g id="patch_217">
    <path d="M 169.024646 157.896 
L 173.032727 157.896 
L 173.032727 157.896 
L 169.024646 157.896 
z
" clip-path="url(#pacde2cd7b1)" style="fill: #d62728"/>
   </g>
   <g id="patch_218">
    <path d="M 174.034747 203.634 
L 178.042828 203.634 
L 178.042828 199.476 
L 174.034747 199.476 
z
" clip-path="url(#pacde2cd7b1)" style="fill: #d62728"/>
   </g>
   <g id="patch_219">
    <path d="M 179.044848 211.95 
L 183.052929 211.95 
L 183.052929 149.58 
L 179.044848 149.58 
z
" clip-path="url(#pacde2cd7b1)" style="fill: #d62728"/>
   </g>
   <g id="patch_220">
    <path d="M 184.054949 307.584 
L 188.06303 307.584 
L 188.06303 307.584 
L 184.054949 307.584 
z
" clip-path="url(#pacde2cd7b1)" style="fill: #d62728"/>
   </g>
   <g id="patch_221">
    <path d="M 189.065051 307.584 
L 193.073131 307.584 
L 193.073131 307.584 
L 189.065051 307.584 
z
" clip-path="url(#pacde2cd7b1)" style="fill: #d62728"/>
   </g>
   <g id="patch_222">
    <path d="M 194.075152 303.426 
L 198.083232 303.426 
L 198.083232 303.426 
L 194.075152 303.426 
z
" clip-path="url(#pacde2cd7b1)" style="fill: #d62728"/>
   </g>
   <g id="patch_223">
    <path d="M 199.085253 87.21 
L 203.093333 87.21 
L 203.093333 66.42 
L 199.085253 66.42 
z
" clip-path="url(#pacde2cd7b1)" style="fill: #d62728"/>
   </g>
   <g id="patch_224">
    <path d="M 204.095354 58.104 
L 208.103434 58.104 
L 208.103434 53.946 
L 204.095354 53.946 
z
" clip-path="url(#pacde2cd7b1)" style="fill: #d62728"/>
   </g>
   <g id="patch_225">
    <path d="M 209.105455 307.584 
L 213.113535 307.584 
L 213.113535 307.584 
L 209.105455 307.584 
z
" clip-path="url(#pacde2cd7b1)" style="fill: #d62728"/>
   </g>
   <g id="patch_226">
    <path d="M 214.115556 307.584 
L 218.123636 307.584 
L 218.123636 307.584 
L 214.115556 307.584 
z
" clip-path="url(#pacde2cd7b1)" style="fill: #d62728"/>
   </g>
   <g id="patch_227">
    <path d="M 219.125657 307.584 
L 223.133737 307.584 
L 223.133737 307.584 
L 219.125657 307.584 
z
" clip-path="url(#pacde2cd7b1)" style="fill: #d62728"/>
   </g>
   <g id="patch_228">
    <path d="M 224.135758 307.584 
L 228.143838 307.584 
L 228.143838 307.584 
L 224.135758 307.584 
z
" clip-path="url(#pacde2cd7b1)" style="fill: #d62728"/>
   </g>
   <g id="patch_229">
    <path d="M 229.145859 286.794 
L 233.153939 286.794 
L 233.153939 286.794 
L 229.145859 286.794 
z
" clip-path="url(#pacde2cd7b1)" style="fill: #d62728"/>
   </g>
   <g id="patch_230">
    <path d="M 234.15596 303.426 
L 238.16404 303.426 
L 238.16404 303.426 
L 234.15596 303.426 
z
" clip-path="url(#pacde2cd7b1)" style="fill: #d62728"/>
   </g>
   <g id="patch_231">
    <path d="M 239.166061 266.004 
L 243.174141 266.004 
L 243.174141 249.372 
L 239.166061 249.372 
z
" clip-path="url(#pacde2cd7b1)" style="fill: #d62728"/>
   </g>
   <g id="patch_232">
    <path d="M 244.176162 307.584 
L 248.184242 307.584 
L 248.184242 307.584 
L 244.176162 307.584 
z
" clip-path="url(#pacde2cd7b1)" style="fill: #d62728"/>
   </g>
   <g id="patch_233">
    <path d="M 249.186263 290.952 
L 253.194343 290.952 
L 253.194343 290.952 
L 249.186263 290.952 
z
" clip-path="url(#pacde2cd7b1)" style="fill: #d62728"/>
   </g>
   <g id="patch_234">
    <path d="M 254.196364 211.95 
L 258.204444 211.95 
L 258.204444 174.528 
L 254.196364 174.528 
z
" clip-path="url(#pacde2cd7b1)" style="fill: #d62728"/>
   </g>
   <g id="patch_235">
    <path d="M 259.206465 270.162 
L 263.214545 270.162 
L 263.214545 257.688 
L 259.206465 257.688 
z
" clip-path="url(#pacde2cd7b1)" style="fill: #d62728"/>
   </g>
   <g id="patch_236">
    <path d="M 264.216566 307.584 
L 268.224646 307.584 
L 268.224646 307.584 
L 264.216566 307.584 
z
" clip-path="url(#pacde2cd7b1)" style="fill: #d62728"/>
   </g>
   <g id="patch_237">
    <path d="M 269.226667 286.794 
L 273.234747 286.794 
L 273.234747 286.794 
L 269.226667 286.794 
z
" clip-path="url(#pacde2cd7b1)" style="fill: #d62728"/>
   </g>
   <g id="patch_238">
    <path d="M 274.236768 303.426 
L 278.244848 303.426 
L 278.244848 303.426 
L 274.236768 303.426 
z
" clip-path="url(#pacde2cd7b1)" style="fill: #d62728"/>
   </g>
   <g id="patch_239">
    <path d="M 279.246869 286.794 
L 283.254949 286.794 
L 283.254949 286.794 
L 279.246869 286.794 
z
" clip-path="url(#pacde2cd7b1)" style="fill: #d62728"/>
   </g>
   <g id="patch_240">
    <path d="M 284.25697 286.794 
L 288.265051 286.794 
L 288.265051 286.794 
L 284.25697 286.794 
z
" clip-path="url(#pacde2cd7b1)" style="fill: #d62728"/>
   </g>
   <g id="patch_241">
    <path d="M 289.267071 295.11 
L 293.275152 295.11 
L 293.275152 295.11 
L 289.267071 295.11 
z
" clip-path="url(#pacde2cd7b1)" style="fill: #d62728"/>
   </g>
   <g id="patch_242">
    <path d="M 294.277172 216.108 
L 298.285253 216.108 
L 298.285253 216.108 
L 294.277172 216.108 
z
" clip-path="url(#pacde2cd7b1)" style="fill: #d62728"/>
   </g>
   <g id="patch_243">
    <path d="M 299.287273 303.426 
L 303.295354 303.426 
L 303.295354 303.426 
L 299.287273 303.426 
z
" clip-path="url(#pacde2cd7b1)" style="fill: #d62728"/>
   </g>
   <g id="patch_244">
    <path d="M 304.297374 170.37 
L 308.305455 170.37 
L 308.305455 145.422 
L 304.297374 145.422 
z
" clip-path="url(#pacde2cd7b1)" style="fill: #d62728"/>
   </g>
   <g id="patch_245">
    <path d="M 309.307475 307.584 
L 313.315556 307.584 
L 313.315556 307.584 
L 309.307475 307.584 
z
" clip-path="url(#pacde2cd7b1)" style="fill: #d62728"/>
   </g>
   <g id="patch_246">
    <path d="M 314.317576 307.584 
L 318.325657 307.584 
L 318.325657 307.584 
L 314.317576 307.584 
z
" clip-path="url(#pacde2cd7b1)" style="fill: #d62728"/>
   </g>
   <g id="patch_247">
    <path d="M 319.327677 307.584 
L 323.335758 307.584 
L 323.335758 307.584 
L 319.327677 307.584 
z
" clip-path="url(#pacde2cd7b1)" style="fill: #d62728"/>
   </g>
   <g id="patch_248">
    <path d="M 324.337778 307.584 
L 328.345859 307.584 
L 328.345859 307.584 
L 324.337778 307.584 
z
" clip-path="url(#pacde2cd7b1)" style="fill: #d62728"/>
   </g>
   <g id="patch_249">
    <path d="M 329.347879 307.584 
L 333.35596 307.584 
L 333.35596 307.584 
L 329.347879 307.584 
z
" clip-path="url(#pacde2cd7b1)" style="fill: #d62728"/>
   </g>
   <g id="patch_250">
    <path d="M 334.35798 307.584 
L 338.366061 307.584 
L 338.366061 307.584 
L 334.35798 307.584 
z
" clip-path="url(#pacde2cd7b1)" style="fill: #d62728"/>
   </g>
   <g id="patch_251">
    <path d="M 339.368081 307.584 
L 343.376162 307.584 
L 343.376162 307.584 
L 339.368081 307.584 
z
" clip-path="url(#pacde2cd7b1)" style="fill: #d62728"/>
   </g>
   <g id="patch_252">
    <path d="M 344.378182 307.584 
L 348.386263 307.584 
L 348.386263 307.584 
L 344.378182 307.584 
z
" clip-path="url(#pacde2cd7b1)" style="fill: #d62728"/>
   </g>
   <g id="patch_253">
    <path d="M 349.388283 307.584 
L 353.396364 307.584 
L 353.396364 307.584 
L 349.388283 307.584 
z
" clip-path="url(#pacde2cd7b1)" style="fill: #d62728"/>
   </g>
   <g id="patch_254">
    <path d="M 354.398384 307.584 
L 358.406465 307.584 
L 358.406465 307.584 
L 354.398384 307.584 
z
" clip-path="url(#pacde2cd7b1)" style="fill: #d62728"/>
   </g>
   <g id="patch_255">
    <path d="M 359.408485 307.584 
L 363.416566 307.584 
L 363.416566 307.584 
L 359.408485 307.584 
z
" clip-path="url(#pacde2cd7b1)" style="fill: #d62728"/>
   </g>
   <g id="patch_256">
    <path d="M 364.418586 307.584 
L 368.426667 307.584 
L 368.426667 307.584 
L 364.418586 307.584 
z
" clip-path="url(#pacde2cd7b1)" style="fill: #d62728"/>
   </g>
   <g id="patch_257">
    <path d="M 369.428687 307.584 
L 373.436768 307.584 
L 373.436768 307.584 
L 369.428687 307.584 
z
" clip-path="url(#pacde2cd7b1)" style="fill: #d62728"/>
   </g>
   <g id="patch_258">
    <path d="M 374.438788 307.584 
L 378.446869 307.584 
L 378.446869 307.584 
L 374.438788 307.584 
z
" clip-path="url(#pacde2cd7b1)" style="fill: #d62728"/>
   </g>
   <g id="patch_259">
    <path d="M 379.448889 307.584 
L 383.45697 307.584 
L 383.45697 307.584 
L 379.448889 307.584 
z
" clip-path="url(#pacde2cd7b1)" style="fill: #d62728"/>
   </g>
   <g id="patch_260">
    <path d="M 384.45899 307.584 
L 388.467071 307.584 
L 388.467071 307.584 
L 384.45899 307.584 
z
" clip-path="url(#pacde2cd7b1)" style="fill: #d62728"/>
   </g>
   <g id="patch_261">
    <path d="M 389.469091 307.584 
L 393.477172 307.584 
L 393.477172 307.584 
L 389.469091 307.584 
z
" clip-path="url(#pacde2cd7b1)" style="fill: #d62728"/>
   </g>
   <g id="patch_262">
    <path d="M 394.479192 307.584 
L 398.487273 307.584 
L 398.487273 307.584 
L 394.479192 307.584 
z
" clip-path="url(#pacde2cd7b1)" style="fill: #d62728"/>
   </g>
   <g id="patch_263">
    <path d="M 73.832727 41.472 
L 77.840808 41.472 
L 77.840808 41.472 
L 73.832727 41.472 
z
" clip-path="url(#pacde2cd7b1)" style="fill: #9467bd"/>
   </g>
   <g id="patch_264">
    <path d="M 78.842828 303.426 
L 82.850909 303.426 
L 82.850909 303.426 
L 78.842828 303.426 
z
" clip-path="url(#pacde2cd7b1)" style="fill: #9467bd"/>
   </g>
   <g id="patch_265">
    <path d="M 83.852929 307.584 
L 87.86101 307.584 
L 87.86101 307.584 
L 83.852929 307.584 
z
" clip-path="url(#pacde2cd7b1)" style="fill: #9467bd"/>
   </g>
   <g id="patch_266">
    <path d="M 88.86303 307.584 
L 92.871111 307.584 
L 92.871111 307.584 
L 88.86303 307.584 
z
" clip-path="url(#pacde2cd7b1)" style="fill: #9467bd"/>
   </g>
   <g id="patch_267">
    <path d="M 93.873131 307.584 
L 97.881212 307.584 
L 97.881212 307.584 
L 93.873131 307.584 
z
" clip-path="url(#pacde2cd7b1)" style="fill: #9467bd"/>
   </g>
   <g id="patch_268">
    <path d="M 98.883232 307.584 
L 102.891313 307.584 
L 102.891313 307.584 
L 98.883232 307.584 
z
" clip-path="url(#pacde2cd7b1)" style="fill: #9467bd"/>
   </g>
   <g id="patch_269">
    <path d="M 103.893333 132.948 
L 107.901414 132.948 
L 107.901414 132.948 
L 103.893333 132.948 
z
" clip-path="url(#pacde2cd7b1)" style="fill: #9467bd"/>
   </g>
   <g id="patch_270">
    <path d="M 108.903434 303.426 
L 112.911515 303.426 
L 112.911515 303.426 
L 108.903434 303.426 
z
" clip-path="url(#pacde2cd7b1)" style="fill: #9467bd"/>
   </g>
   <g id="patch_271">
    <path d="M 113.913535 307.584 
L 117.921616 307.584 
L 117.921616 307.584 
L 113.913535 307.584 
z
" clip-path="url(#pacde2cd7b1)" style="fill: #9467bd"/>
   </g>
   <g id="patch_272">
    <path d="M 118.923636 203.634 
L 122.931717 203.634 
L 122.931717 203.634 
L 118.923636 203.634 
z
" clip-path="url(#pacde2cd7b1)" style="fill: #9467bd"/>
   </g>
   <g id="patch_273">
    <path d="M 123.933737 232.74 
L 127.941818 232.74 
L 127.941818 232.74 
L 123.933737 232.74 
z
" clip-path="url(#pacde2cd7b1)" style="fill: #9467bd"/>
   </g>
   <g id="patch_274">
    <path d="M 128.943838 299.268 
L 132.951919 299.268 
L 132.951919 299.268 
L 128.943838 299.268 
z
" clip-path="url(#pacde2cd7b1)" style="fill: #9467bd"/>
   </g>
   <g id="patch_275">
    <path d="M 133.953939 299.268 
L 137.96202 299.268 
L 137.96202 299.268 
L 133.953939 299.268 
z
" clip-path="url(#pacde2cd7b1)" style="fill: #9467bd"/>
   </g>
   <g id="patch_276">
    <path d="M 138.96404 203.634 
L 142.972121 203.634 
L 142.972121 203.634 
L 138.96404 203.634 
z
" clip-path="url(#pacde2cd7b1)" style="fill: #9467bd"/>
   </g>
   <g id="patch_277">
    <path d="M 143.974141 137.106 
L 147.982222 137.106 
L 147.982222 137.106 
L 143.974141 137.106 
z
" clip-path="url(#pacde2cd7b1)" style="fill: #9467bd"/>
   </g>
   <g id="patch_278">
    <path d="M 148.984242 307.584 
L 152.992323 307.584 
L 152.992323 307.584 
L 148.984242 307.584 
z
" clip-path="url(#pacde2cd7b1)" style="fill: #9467bd"/>
   </g>
   <g id="patch_279">
    <path d="M 153.994343 303.426 
L 158.002424 303.426 
L 158.002424 303.426 
L 153.994343 303.426 
z
" clip-path="url(#pacde2cd7b1)" style="fill: #9467bd"/>
   </g>
   <g id="patch_280">
    <path d="M 159.004444 295.11 
L 163.012525 295.11 
L 163.012525 295.11 
L 159.004444 295.11 
z
" clip-path="url(#pacde2cd7b1)" style="fill: #9467bd"/>
   </g>
   <g id="patch_281">
    <path d="M 164.014545 162.054 
L 168.022626 162.054 
L 168.022626 153.738 
L 164.014545 153.738 
z
" clip-path="url(#pacde2cd7b1)" style="fill: #9467bd"/>
   </g>
   <g id="patch_282">
    <path d="M 169.024646 157.896 
L 173.032727 157.896 
L 173.032727 157.896 
L 169.024646 157.896 
z
" clip-path="url(#pacde2cd7b1)" style="fill: #9467bd"/>
   </g>
   <g id="patch_283">
    <path d="M 174.034747 199.476 
L 178.042828 199.476 
L 178.042828 199.476 
L 174.034747 199.476 
z
" clip-path="url(#pacde2cd7b1)" style="fill: #9467bd"/>
   </g>
   <g id="patch_284">
    <path d="M 179.044848 149.58 
L 183.052929 149.58 
L 183.052929 149.58 
L 179.044848 149.58 
z
" clip-path="url(#pacde2cd7b1)" style="fill: #9467bd"/>
   </g>
   <g id="patch_285">
    <path d="M 184.054949 307.584 
L 188.06303 307.584 
L 188.06303 307.584 
L 184.054949 307.584 
z
" clip-path="url(#pacde2cd7b1)" style="fill: #9467bd"/>
   </g>
   <g id="patch_286">
    <path d="M 189.065051 307.584 
L 193.073131 307.584 
L 193.073131 307.584 
L 189.065051 307.584 
z
" clip-path="url(#pacde2cd7b1)" style="fill: #9467bd"/>
   </g>
   <g id="patch_287">
    <path d="M 194.075152 303.426 
L 198.083232 303.426 
L 198.083232 303.426 
L 194.075152 303.426 
z
" clip-path="url(#pacde2cd7b1)" style="fill: #9467bd"/>
   </g>
   <g id="patch_288">
    <path d="M 199.085253 66.42 
L 203.093333 66.42 
L 203.093333 66.42 
L 199.085253 66.42 
z
" clip-path="url(#pacde2cd7b1)" style="fill: #9467bd"/>
   </g>
   <g id="patch_289">
    <path d="M 204.095354 53.946 
L 208.103434 53.946 
L 208.103434 53.946 
L 204.095354 53.946 
z
" clip-path="url(#pacde2cd7b1)" style="fill: #9467bd"/>
   </g>
   <g id="patch_290">
    <path d="M 209.105455 307.584 
L 213.113535 307.584 
L 213.113535 307.584 
L 209.105455 307.584 
z
" clip-path="url(#pacde2cd7b1)" style="fill: #9467bd"/>
   </g>
   <g id="patch_291">
    <path d="M 214.115556 307.584 
L 218.123636 307.584 
L 218.123636 307.584 
L 214.115556 307.584 
z
" clip-path="url(#pacde2cd7b1)" style="fill: #9467bd"/>
   </g>
   <g id="patch_292">
    <path d="M 219.125657 307.584 
L 223.133737 307.584 
L 223.133737 307.584 
L 219.125657 307.584 
z
" clip-path="url(#pacde2cd7b1)" style="fill: #9467bd"/>
   </g>
   <g id="patch_293">
    <path d="M 224.135758 307.584 
L 228.143838 307.584 
L 228.143838 307.584 
L 224.135758 307.584 
z
" clip-path="url(#pacde2cd7b1)" style="fill: #9467bd"/>
   </g>
   <g id="patch_294">
    <path d="M 229.145859 286.794 
L 233.153939 286.794 
L 233.153939 286.794 
L 229.145859 286.794 
z
" clip-path="url(#pacde2cd7b1)" style="fill: #9467bd"/>
   </g>
   <g id="patch_295">
    <path d="M 234.15596 303.426 
L 238.16404 303.426 
L 238.16404 303.426 
L 234.15596 303.426 
z
" clip-path="url(#pacde2cd7b1)" style="fill: #9467bd"/>
   </g>
   <g id="patch_296">
    <path d="M 239.166061 249.372 
L 243.174141 249.372 
L 243.174141 249.372 
L 239.166061 249.372 
z
" clip-path="url(#pacde2cd7b1)" style="fill: #9467bd"/>
   </g>
   <g id="patch_297">
    <path d="M 244.176162 307.584 
L 248.184242 307.584 
L 248.184242 307.584 
L 244.176162 307.584 
z
" clip-path="url(#pacde2cd7b1)" style="fill: #9467bd"/>
   </g>
   <g id="patch_298">
    <path d="M 249.186263 290.952 
L 253.194343 290.952 
L 253.194343 290.952 
L 249.186263 290.952 
z
" clip-path="url(#pacde2cd7b1)" style="fill: #9467bd"/>
   </g>
   <g id="patch_299">
    <path d="M 254.196364 174.528 
L 258.204444 174.528 
L 258.204444 174.528 
L 254.196364 174.528 
z
" clip-path="url(#pacde2cd7b1)" style="fill: #9467bd"/>
   </g>
   <g id="patch_300">
    <path d="M 259.206465 257.688 
L 263.214545 257.688 
L 263.214545 257.688 
L 259.206465 257.688 
z
" clip-path="url(#pacde2cd7b1)" style="fill: #9467bd"/>
   </g>
   <g id="patch_301">
    <path d="M 264.216566 307.584 
L 268.224646 307.584 
L 268.224646 307.584 
L 264.216566 307.584 
z
" clip-path="url(#pacde2cd7b1)" style="fill: #9467bd"/>
   </g>
   <g id="patch_302">
    <path d="M 269.226667 286.794 
L 273.234747 286.794 
L 273.234747 286.794 
L 269.226667 286.794 
z
" clip-path="url(#pacde2cd7b1)" style="fill: #9467bd"/>
   </g>
   <g id="patch_303">
    <path d="M 274.236768 303.426 
L 278.244848 303.426 
L 278.244848 303.426 
L 274.236768 303.426 
z
" clip-path="url(#pacde2cd7b1)" style="fill: #9467bd"/>
   </g>
   <g id="patch_304">
    <path d="M 279.246869 286.794 
L 283.254949 286.794 
L 283.254949 286.794 
L 279.246869 286.794 
z
" clip-path="url(#pacde2cd7b1)" style="fill: #9467bd"/>
   </g>
   <g id="patch_305">
    <path d="M 284.25697 286.794 
L 288.265051 286.794 
L 288.265051 286.794 
L 284.25697 286.794 
z
" clip-path="url(#pacde2cd7b1)" style="fill: #9467bd"/>
   </g>
   <g id="patch_306">
    <path d="M 289.267071 295.11 
L 293.275152 295.11 
L 293.275152 295.11 
L 289.267071 295.11 
z
" clip-path="url(#pacde2cd7b1)" style="fill: #9467bd"/>
   </g>
   <g id="patch_307">
    <path d="M 294.277172 216.108 
L 298.285253 216.108 
L 298.285253 216.108 
L 294.277172 216.108 
z
" clip-path="url(#pacde2cd7b1)" style="fill: #9467bd"/>
   </g>
   <g id="patch_308">
    <path d="M 299.287273 303.426 
L 303.295354 303.426 
L 303.295354 303.426 
L 299.287273 303.426 
z
" clip-path="url(#pacde2cd7b1)" style="fill: #9467bd"/>
   </g>
   <g id="patch_309">
    <path d="M 304.297374 145.422 
L 308.305455 145.422 
L 308.305455 137.106 
L 304.297374 137.106 
z
" clip-path="url(#pacde2cd7b1)" style="fill: #9467bd"/>
   </g>
   <g id="patch_310">
    <path d="M 309.307475 307.584 
L 313.315556 307.584 
L 313.315556 307.584 
L 309.307475 307.584 
z
" clip-path="url(#pacde2cd7b1)" style="fill: #9467bd"/>
   </g>
   <g id="patch_311">
    <path d="M 314.317576 307.584 
L 318.325657 307.584 
L 318.325657 307.584 
L 314.317576 307.584 
z
" clip-path="url(#pacde2cd7b1)" style="fill: #9467bd"/>
   </g>
   <g id="patch_312">
    <path d="M 319.327677 307.584 
L 323.335758 307.584 
L 323.335758 307.584 
L 319.327677 307.584 
z
" clip-path="url(#pacde2cd7b1)" style="fill: #9467bd"/>
   </g>
   <g id="patch_313">
    <path d="M 324.337778 307.584 
L 328.345859 307.584 
L 328.345859 307.584 
L 324.337778 307.584 
z
" clip-path="url(#pacde2cd7b1)" style="fill: #9467bd"/>
   </g>
   <g id="patch_314">
    <path d="M 329.347879 307.584 
L 333.35596 307.584 
L 333.35596 307.584 
L 329.347879 307.584 
z
" clip-path="url(#pacde2cd7b1)" style="fill: #9467bd"/>
   </g>
   <g id="patch_315">
    <path d="M 334.35798 307.584 
L 338.366061 307.584 
L 338.366061 307.584 
L 334.35798 307.584 
z
" clip-path="url(#pacde2cd7b1)" style="fill: #9467bd"/>
   </g>
   <g id="patch_316">
    <path d="M 339.368081 307.584 
L 343.376162 307.584 
L 343.376162 307.584 
L 339.368081 307.584 
z
" clip-path="url(#pacde2cd7b1)" style="fill: #9467bd"/>
   </g>
   <g id="patch_317">
    <path d="M 344.378182 307.584 
L 348.386263 307.584 
L 348.386263 307.584 
L 344.378182 307.584 
z
" clip-path="url(#pacde2cd7b1)" style="fill: #9467bd"/>
   </g>
   <g id="patch_318">
    <path d="M 349.388283 307.584 
L 353.396364 307.584 
L 353.396364 307.584 
L 349.388283 307.584 
z
" clip-path="url(#pacde2cd7b1)" style="fill: #9467bd"/>
   </g>
   <g id="patch_319">
    <path d="M 354.398384 307.584 
L 358.406465 307.584 
L 358.406465 307.584 
L 354.398384 307.584 
z
" clip-path="url(#pacde2cd7b1)" style="fill: #9467bd"/>
   </g>
   <g id="patch_320">
    <path d="M 359.408485 307.584 
L 363.416566 307.584 
L 363.416566 307.584 
L 359.408485 307.584 
z
" clip-path="url(#pacde2cd7b1)" style="fill: #9467bd"/>
   </g>
   <g id="patch_321">
    <path d="M 364.418586 307.584 
L 368.426667 307.584 
L 368.426667 307.584 
L 364.418586 307.584 
z
" clip-path="url(#pacde2cd7b1)" style="fill: #9467bd"/>
   </g>
   <g id="patch_322">
    <path d="M 369.428687 307.584 
L 373.436768 307.584 
L 373.436768 307.584 
L 369.428687 307.584 
z
" clip-path="url(#pacde2cd7b1)" style="fill: #9467bd"/>
   </g>
   <g id="patch_323">
    <path d="M 374.438788 307.584 
L 378.446869 307.584 
L 378.446869 307.584 
L 374.438788 307.584 
z
" clip-path="url(#pacde2cd7b1)" style="fill: #9467bd"/>
   </g>
   <g id="patch_324">
    <path d="M 379.448889 307.584 
L 383.45697 307.584 
L 383.45697 307.584 
L 379.448889 307.584 
z
" clip-path="url(#pacde2cd7b1)" style="fill: #9467bd"/>
   </g>
   <g id="patch_325">
    <path d="M 384.45899 307.584 
L 388.467071 307.584 
L 388.467071 307.584 
L 384.45899 307.584 
z
" clip-path="url(#pacde2cd7b1)" style="fill: #9467bd"/>
   </g>
   <g id="patch_326">
    <path d="M 389.469091 307.584 
L 393.477172 307.584 
L 393.477172 307.584 
L 389.469091 307.584 
z
" clip-path="url(#pacde2cd7b1)" style="fill: #9467bd"/>
   </g>
   <g id="patch_327">
    <path d="M 394.479192 307.584 
L 398.487273 307.584 
L 398.487273 307.584 
L 394.479192 307.584 
z
" clip-path="url(#pacde2cd7b1)" style="fill: #9467bd"/>
   </g>
   <g id="patch_328">
    <path d="M 73.832727 41.472 
L 77.840808 41.472 
L 77.840808 41.472 
L 73.832727 41.472 
z
" clip-path="url(#pacde2cd7b1)" style="fill: #8c564b"/>
   </g>
   <g id="patch_329">
    <path d="M 78.842828 303.426 
L 82.850909 303.426 
L 82.850909 303.426 
L 78.842828 303.426 
z
" clip-path="url(#pacde2cd7b1)" style="fill: #8c564b"/>
   </g>
   <g id="patch_330">
    <path d="M 83.852929 307.584 
L 87.86101 307.584 
L 87.86101 307.584 
L 83.852929 307.584 
z
" clip-path="url(#pacde2cd7b1)" style="fill: #8c564b"/>
   </g>
   <g id="patch_331">
    <path d="M 88.86303 307.584 
L 92.871111 307.584 
L 92.871111 295.11 
L 88.86303 295.11 
z
" clip-path="url(#pacde2cd7b1)" style="fill: #8c564b"/>
   </g>
   <g id="patch_332">
    <path d="M 93.873131 307.584 
L 97.881212 307.584 
L 97.881212 307.584 
L 93.873131 307.584 
z
" clip-path="url(#pacde2cd7b1)" style="fill: #8c564b"/>
   </g>
   <g id="patch_333">
    <path d="M 98.883232 307.584 
L 102.891313 307.584 
L 102.891313 307.584 
L 98.883232 307.584 
z
" clip-path="url(#pacde2cd7b1)" style="fill: #8c564b"/>
   </g>
   <g id="patch_334">
    <path d="M 103.893333 132.948 
L 107.901414 132.948 
L 107.901414 132.948 
L 103.893333 132.948 
z
" clip-path="url(#pacde2cd7b1)" style="fill: #8c564b"/>
   </g>
   <g id="patch_335">
    <path d="M 108.903434 303.426 
L 112.911515 303.426 
L 112.911515 303.426 
L 108.903434 303.426 
z
" clip-path="url(#pacde2cd7b1)" style="fill: #8c564b"/>
   </g>
   <g id="patch_336">
    <path d="M 113.913535 307.584 
L 117.921616 307.584 
L 117.921616 307.584 
L 113.913535 307.584 
z
" clip-path="url(#pacde2cd7b1)" style="fill: #8c564b"/>
   </g>
   <g id="patch_337">
    <path d="M 118.923636 203.634 
L 122.931717 203.634 
L 122.931717 203.634 
L 118.923636 203.634 
z
" clip-path="url(#pacde2cd7b1)" style="fill: #8c564b"/>
   </g>
   <g id="patch_338">
    <path d="M 123.933737 232.74 
L 127.941818 232.74 
L 127.941818 232.74 
L 123.933737 232.74 
z
" clip-path="url(#pacde2cd7b1)" style="fill: #8c564b"/>
   </g>
   <g id="patch_339">
    <path d="M 128.943838 299.268 
L 132.951919 299.268 
L 132.951919 299.268 
L 128.943838 299.268 
z
" clip-path="url(#pacde2cd7b1)" style="fill: #8c564b"/>
   </g>
   <g id="patch_340">
    <path d="M 133.953939 299.268 
L 137.96202 299.268 
L 137.96202 299.268 
L 133.953939 299.268 
z
" clip-path="url(#pacde2cd7b1)" style="fill: #8c564b"/>
   </g>
   <g id="patch_341">
    <path d="M 138.96404 203.634 
L 142.972121 203.634 
L 142.972121 203.634 
L 138.96404 203.634 
z
" clip-path="url(#pacde2cd7b1)" style="fill: #8c564b"/>
   </g>
   <g id="patch_342">
    <path d="M 143.974141 137.106 
L 147.982222 137.106 
L 147.982222 137.106 
L 143.974141 137.106 
z
" clip-path="url(#pacde2cd7b1)" style="fill: #8c564b"/>
   </g>
   <g id="patch_343">
    <path d="M 148.984242 307.584 
L 152.992323 307.584 
L 152.992323 307.584 
L 148.984242 307.584 
z
" clip-path="url(#pacde2cd7b1)" style="fill: #8c564b"/>
   </g>
   <g id="patch_344">
    <path d="M 153.994343 303.426 
L 158.002424 303.426 
L 158.002424 303.426 
L 153.994343 303.426 
z
" clip-path="url(#pacde2cd7b1)" style="fill: #8c564b"/>
   </g>
   <g id="patch_345">
    <path d="M 159.004444 295.11 
L 163.012525 295.11 
L 163.012525 295.11 
L 159.004444 295.11 
z
" clip-path="url(#pacde2cd7b1)" style="fill: #8c564b"/>
   </g>
   <g id="patch_346">
    <path d="M 164.014545 153.738 
L 168.022626 153.738 
L 168.022626 149.58 
L 164.014545 149.58 
z
" clip-path="url(#pacde2cd7b1)" style="fill: #8c564b"/>
   </g>
   <g id="patch_347">
    <path d="M 169.024646 157.896 
L 173.032727 157.896 
L 173.032727 157.896 
L 169.024646 157.896 
z
" clip-path="url(#pacde2cd7b1)" style="fill: #8c564b"/>
   </g>
   <g id="patch_348">
    <path d="M 174.034747 199.476 
L 178.042828 199.476 
L 178.042828 199.476 
L 174.034747 199.476 
z
" clip-path="url(#pacde2cd7b1)" style="fill: #8c564b"/>
   </g>
   <g id="patch_349">
    <path d="M 179.044848 149.58 
L 183.052929 149.58 
L 183.052929 141.264 
L 179.044848 141.264 
z
" clip-path="url(#pacde2cd7b1)" style="fill: #8c564b"/>
   </g>
   <g id="patch_350">
    <path d="M 184.054949 307.584 
L 188.06303 307.584 
L 188.06303 299.268 
L 184.054949 299.268 
z
" clip-path="url(#pacde2cd7b1)" style="fill: #8c564b"/>
   </g>
   <g id="patch_351">
    <path d="M 189.065051 307.584 
L 193.073131 307.584 
L 193.073131 307.584 
L 189.065051 307.584 
z
" clip-path="url(#pacde2cd7b1)" style="fill: #8c564b"/>
   </g>
   <g id="patch_352">
    <path d="M 194.075152 303.426 
L 198.083232 303.426 
L 198.083232 303.426 
L 194.075152 303.426 
z
" clip-path="url(#pacde2cd7b1)" style="fill: #8c564b"/>
   </g>
   <g id="patch_353">
    <path d="M 199.085253 66.42 
L 203.093333 66.42 
L 203.093333 66.42 
L 199.085253 66.42 
z
" clip-path="url(#pacde2cd7b1)" style="fill: #8c564b"/>
   </g>
   <g id="patch_354">
    <path d="M 204.095354 53.946 
L 208.103434 53.946 
L 208.103434 53.946 
L 204.095354 53.946 
z
" clip-path="url(#pacde2cd7b1)" style="fill: #8c564b"/>
   </g>
   <g id="patch_355">
    <path d="M 209.105455 307.584 
L 213.113535 307.584 
L 213.113535 307.584 
L 209.105455 307.584 
z
" clip-path="url(#pacde2cd7b1)" style="fill: #8c564b"/>
   </g>
   <g id="patch_356">
    <path d="M 214.115556 307.584 
L 218.123636 307.584 
L 218.123636 307.584 
L 214.115556 307.584 
z
" clip-path="url(#pacde2cd7b1)" style="fill: #8c564b"/>
   </g>
   <g id="patch_357">
    <path d="M 219.125657 307.584 
L 223.133737 307.584 
L 223.133737 307.584 
L 219.125657 307.584 
z
" clip-path="url(#pacde2cd7b1)" style="fill: #8c564b"/>
   </g>
   <g id="patch_358">
    <path d="M 224.135758 307.584 
L 228.143838 307.584 
L 228.143838 307.584 
L 224.135758 307.584 
z
" clip-path="url(#pacde2cd7b1)" style="fill: #8c564b"/>
   </g>
   <g id="patch_359">
    <path d="M 229.145859 286.794 
L 233.153939 286.794 
L 233.153939 286.794 
L 229.145859 286.794 
z
" clip-path="url(#pacde2cd7b1)" style="fill: #8c564b"/>
   </g>
   <g id="patch_360">
    <path d="M 234.15596 303.426 
L 238.16404 303.426 
L 238.16404 303.426 
L 234.15596 303.426 
z
" clip-path="url(#pacde2cd7b1)" style="fill: #8c564b"/>
   </g>
   <g id="patch_361">
    <path d="M 239.166061 249.372 
L 243.174141 249.372 
L 243.174141 241.056 
L 239.166061 241.056 
z
" clip-path="url(#pacde2cd7b1)" style="fill: #8c564b"/>
   </g>
   <g id="patch_362">
    <path d="M 244.176162 307.584 
L 248.184242 307.584 
L 248.184242 307.584 
L 244.176162 307.584 
z
" clip-path="url(#pacde2cd7b1)" style="fill: #8c564b"/>
   </g>
   <g id="patch_363">
    <path d="M 249.186263 290.952 
L 253.194343 290.952 
L 253.194343 290.952 
L 249.186263 290.952 
z
" clip-path="url(#pacde2cd7b1)" style="fill: #8c564b"/>
   </g>
   <g id="patch_364">
    <path d="M 254.196364 174.528 
L 258.204444 174.528 
L 258.204444 170.37 
L 254.196364 170.37 
z
" clip-path="url(#pacde2cd7b1)" style="fill: #8c564b"/>
   </g>
   <g id="patch_365">
    <path d="M 259.206465 257.688 
L 263.214545 257.688 
L 263.214545 257.688 
L 259.206465 257.688 
z
" clip-path="url(#pacde2cd7b1)" style="fill: #8c564b"/>
   </g>
   <g id="patch_366">
    <path d="M 264.216566 307.584 
L 268.224646 307.584 
L 268.224646 307.584 
L 264.216566 307.584 
z
" clip-path="url(#pacde2cd7b1)" style="fill: #8c564b"/>
   </g>
   <g id="patch_367">
    <path d="M 269.226667 286.794 
L 273.234747 286.794 
L 273.234747 286.794 
L 269.226667 286.794 
z
" clip-path="url(#pacde2cd7b1)" style="fill: #8c564b"/>
   </g>
   <g id="patch_368">
    <path d="M 274.236768 303.426 
L 278.244848 303.426 
L 278.244848 303.426 
L 274.236768 303.426 
z
" clip-path="url(#pacde2cd7b1)" style="fill: #8c564b"/>
   </g>
   <g id="patch_369">
    <path d="M 279.246869 286.794 
L 283.254949 286.794 
L 283.254949 286.794 
L 279.246869 286.794 
z
" clip-path="url(#pacde2cd7b1)" style="fill: #8c564b"/>
   </g>
   <g id="patch_370">
    <path d="M 284.25697 286.794 
L 288.265051 286.794 
L 288.265051 286.794 
L 284.25697 286.794 
z
" clip-path="url(#pacde2cd7b1)" style="fill: #8c564b"/>
   </g>
   <g id="patch_371">
    <path d="M 289.267071 295.11 
L 293.275152 295.11 
L 293.275152 290.952 
L 289.267071 290.952 
z
" clip-path="url(#pacde2cd7b1)" style="fill: #8c564b"/>
   </g>
   <g id="patch_372">
    <path d="M 294.277172 216.108 
L 298.285253 216.108 
L 298.285253 216.108 
L 294.277172 216.108 
z
" clip-path="url(#pacde2cd7b1)" style="fill: #8c564b"/>
   </g>
   <g id="patch_373">
    <path d="M 299.287273 303.426 
L 303.295354 303.426 
L 303.295354 303.426 
L 299.287273 303.426 
z
" clip-path="url(#pacde2cd7b1)" style="fill: #8c564b"/>
   </g>
   <g id="patch_374">
    <path d="M 304.297374 137.106 
L 308.305455 137.106 
L 308.305455 137.106 
L 304.297374 137.106 
z
" clip-path="url(#pacde2cd7b1)" style="fill: #8c564b"/>
   </g>
   <g id="patch_375">
    <path d="M 309.307475 307.584 
L 313.315556 307.584 
L 313.315556 307.584 
L 309.307475 307.584 
z
" clip-path="url(#pacde2cd7b1)" style="fill: #8c564b"/>
   </g>
   <g id="patch_376">
    <path d="M 314.317576 307.584 
L 318.325657 307.584 
L 318.325657 307.584 
L 314.317576 307.584 
z
" clip-path="url(#pacde2cd7b1)" style="fill: #8c564b"/>
   </g>
   <g id="patch_377">
    <path d="M 319.327677 307.584 
L 323.335758 307.584 
L 323.335758 307.584 
L 319.327677 307.584 
z
" clip-path="url(#pacde2cd7b1)" style="fill: #8c564b"/>
   </g>
   <g id="patch_378">
    <path d="M 324.337778 307.584 
L 328.345859 307.584 
L 328.345859 307.584 
L 324.337778 307.584 
z
" clip-path="url(#pacde2cd7b1)" style="fill: #8c564b"/>
   </g>
   <g id="patch_379">
    <path d="M 329.347879 307.584 
L 333.35596 307.584 
L 333.35596 307.584 
L 329.347879 307.584 
z
" clip-path="url(#pacde2cd7b1)" style="fill: #8c564b"/>
   </g>
   <g id="patch_380">
    <path d="M 334.35798 307.584 
L 338.366061 307.584 
L 338.366061 307.584 
L 334.35798 307.584 
z
" clip-path="url(#pacde2cd7b1)" style="fill: #8c564b"/>
   </g>
   <g id="patch_381">
    <path d="M 339.368081 307.584 
L 343.376162 307.584 
L 343.376162 307.584 
L 339.368081 307.584 
z
" clip-path="url(#pacde2cd7b1)" style="fill: #8c564b"/>
   </g>
   <g id="patch_382">
    <path d="M 344.378182 307.584 
L 348.386263 307.584 
L 348.386263 307.584 
L 344.378182 307.584 
z
" clip-path="url(#pacde2cd7b1)" style="fill: #8c564b"/>
   </g>
   <g id="patch_383">
    <path d="M 349.388283 307.584 
L 353.396364 307.584 
L 353.396364 307.584 
L 349.388283 307.584 
z
" clip-path="url(#pacde2cd7b1)" style="fill: #8c564b"/>
   </g>
   <g id="patch_384">
    <path d="M 354.398384 307.584 
L 358.406465 307.584 
L 358.406465 307.584 
L 354.398384 307.584 
z
" clip-path="url(#pacde2cd7b1)" style="fill: #8c564b"/>
   </g>
   <g id="patch_385">
    <path d="M 359.408485 307.584 
L 363.416566 307.584 
L 363.416566 307.584 
L 359.408485 307.584 
z
" clip-path="url(#pacde2cd7b1)" style="fill: #8c564b"/>
   </g>
   <g id="patch_386">
    <path d="M 364.418586 307.584 
L 368.426667 307.584 
L 368.426667 307.584 
L 364.418586 307.584 
z
" clip-path="url(#pacde2cd7b1)" style="fill: #8c564b"/>
   </g>
   <g id="patch_387">
    <path d="M 369.428687 307.584 
L 373.436768 307.584 
L 373.436768 307.584 
L 369.428687 307.584 
z
" clip-path="url(#pacde2cd7b1)" style="fill: #8c564b"/>
   </g>
   <g id="patch_388">
    <path d="M 374.438788 307.584 
L 378.446869 307.584 
L 378.446869 307.584 
L 374.438788 307.584 
z
" clip-path="url(#pacde2cd7b1)" style="fill: #8c564b"/>
   </g>
   <g id="patch_389">
    <path d="M 379.448889 307.584 
L 383.45697 307.584 
L 383.45697 307.584 
L 379.448889 307.584 
z
" clip-path="url(#pacde2cd7b1)" style="fill: #8c564b"/>
   </g>
   <g id="patch_390">
    <path d="M 384.45899 307.584 
L 388.467071 307.584 
L 388.467071 307.584 
L 384.45899 307.584 
z
" clip-path="url(#pacde2cd7b1)" style="fill: #8c564b"/>
   </g>
   <g id="patch_391">
    <path d="M 389.469091 307.584 
L 393.477172 307.584 
L 393.477172 307.584 
L 389.469091 307.584 
z
" clip-path="url(#pacde2cd7b1)" style="fill: #8c564b"/>
   </g>
   <g id="patch_392">
    <path d="M 394.479192 307.584 
L 398.487273 307.584 
L 398.487273 307.584 
L 394.479192 307.584 
z
" clip-path="url(#pacde2cd7b1)" style="fill: #8c564b"/>
   </g>
   <g id="matplotlib.axis_1">
    <g id="xtick_1">
     <g id="line2d_1">
      <defs>
       <path id="m5a69325668" d="M 0 0 
L 0 3.5 
" style="stroke: #000000; stroke-width: 0.8"/>
      </defs>
      <g>
       <use xlink:href="#m5a69325668" x="70.826667" y="307.584" style="stroke: #000000; stroke-width: 0.8"/>
      </g>
     </g>
     <g id="text_1">
      <!-- 0 -->
      <g transform="translate(67.645417 322.182437) scale(0.1 -0.1)">
       <defs>
        <path id="DejaVuSans-30" d="M 2034 4250 
Q 1547 4250 1301 3770 
Q 1056 3291 1056 2328 
Q 1056 1369 1301 889 
Q 1547 409 2034 409 
Q 2525 409 2770 889 
Q 3016 1369 3016 2328 
Q 3016 3291 2770 3770 
Q 2525 4250 2034 4250 
z
M 2034 4750 
Q 2819 4750 3233 4129 
Q 3647 3509 3647 2328 
Q 3647 1150 3233 529 
Q 2819 -91 2034 -91 
Q 1250 -91 836 529 
Q 422 1150 422 2328 
Q 422 3509 836 4129 
Q 1250 4750 2034 4750 
z
" transform="scale(0.015625)"/>
       </defs>
       <use xlink:href="#DejaVuSans-30"/>
      </g>
     </g>
    </g>
    <g id="xtick_2">
     <g id="line2d_2">
      <g>
       <use xlink:href="#m5a69325668" x="120.927677" y="307.584" style="stroke: #000000; stroke-width: 0.8"/>
      </g>
     </g>
     <g id="text_2">
      <!-- 10 -->
      <g transform="translate(114.565177 322.182437) scale(0.1 -0.1)">
       <defs>
        <path id="DejaVuSans-31" d="M 794 531 
L 1825 531 
L 1825 4091 
L 703 3866 
L 703 4441 
L 1819 4666 
L 2450 4666 
L 2450 531 
L 3481 531 
L 3481 0 
L 794 0 
L 794 531 
z
" transform="scale(0.015625)"/>
       </defs>
       <use xlink:href="#DejaVuSans-31"/>
       <use xlink:href="#DejaVuSans-30" x="63.623047"/>
      </g>
     </g>
    </g>
    <g id="xtick_3">
     <g id="line2d_3">
      <g>
       <use xlink:href="#m5a69325668" x="171.028687" y="307.584" style="stroke: #000000; stroke-width: 0.8"/>
      </g>
     </g>
     <g id="text_3">
      <!-- 20 -->
      <g transform="translate(164.666187 322.182437) scale(0.1 -0.1)">
       <defs>
        <path id="DejaVuSans-32" d="M 1228 531 
L 3431 531 
L 3431 0 
L 469 0 
L 469 531 
Q 828 903 1448 1529 
Q 2069 2156 2228 2338 
Q 2531 2678 2651 2914 
Q 2772 3150 2772 3378 
Q 2772 3750 2511 3984 
Q 2250 4219 1831 4219 
Q 1534 4219 1204 4116 
Q 875 4013 500 3803 
L 500 4441 
Q 881 4594 1212 4672 
Q 1544 4750 1819 4750 
Q 2544 4750 2975 4387 
Q 3406 4025 3406 3419 
Q 3406 3131 3298 2873 
Q 3191 2616 2906 2266 
Q 2828 2175 2409 1742 
Q 1991 1309 1228 531 
z
" transform="scale(0.015625)"/>
       </defs>
       <use xlink:href="#DejaVuSans-32"/>
       <use xlink:href="#DejaVuSans-30" x="63.623047"/>
      </g>
     </g>
    </g>
    <g id="xtick_4">
     <g id="line2d_4">
      <g>
       <use xlink:href="#m5a69325668" x="221.129697" y="307.584" style="stroke: #000000; stroke-width: 0.8"/>
      </g>
     </g>
     <g id="text_4">
      <!-- 30 -->
      <g transform="translate(214.767197 322.182437) scale(0.1 -0.1)">
       <defs>
        <path id="DejaVuSans-33" d="M 2597 2516 
Q 3050 2419 3304 2112 
Q 3559 1806 3559 1356 
Q 3559 666 3084 287 
Q 2609 -91 1734 -91 
Q 1441 -91 1130 -33 
Q 819 25 488 141 
L 488 750 
Q 750 597 1062 519 
Q 1375 441 1716 441 
Q 2309 441 2620 675 
Q 2931 909 2931 1356 
Q 2931 1769 2642 2001 
Q 2353 2234 1838 2234 
L 1294 2234 
L 1294 2753 
L 1863 2753 
Q 2328 2753 2575 2939 
Q 2822 3125 2822 3475 
Q 2822 3834 2567 4026 
Q 2313 4219 1838 4219 
Q 1578 4219 1281 4162 
Q 984 4106 628 3988 
L 628 4550 
Q 988 4650 1302 4700 
Q 1616 4750 1894 4750 
Q 2613 4750 3031 4423 
Q 3450 4097 3450 3541 
Q 3450 3153 3228 2886 
Q 3006 2619 2597 2516 
z
" transform="scale(0.015625)"/>
       </defs>
       <use xlink:href="#DejaVuSans-33"/>
       <use xlink:href="#DejaVuSans-30" x="63.623047"/>
      </g>
     </g>
    </g>
    <g id="xtick_5">
     <g id="line2d_5">
      <g>
       <use xlink:href="#m5a69325668" x="271.230707" y="307.584" style="stroke: #000000; stroke-width: 0.8"/>
      </g>
     </g>
     <g id="text_5">
      <!-- 40 -->
      <g transform="translate(264.868207 322.182437) scale(0.1 -0.1)">
       <defs>
        <path id="DejaVuSans-34" d="M 2419 4116 
L 825 1625 
L 2419 1625 
L 2419 4116 
z
M 2253 4666 
L 3047 4666 
L 3047 1625 
L 3713 1625 
L 3713 1100 
L 3047 1100 
L 3047 0 
L 2419 0 
L 2419 1100 
L 313 1100 
L 313 1709 
L 2253 4666 
z
" transform="scale(0.015625)"/>
       </defs>
       <use xlink:href="#DejaVuSans-34"/>
       <use xlink:href="#DejaVuSans-30" x="63.623047"/>
      </g>
     </g>
    </g>
    <g id="xtick_6">
     <g id="line2d_6">
      <g>
       <use xlink:href="#m5a69325668" x="321.331717" y="307.584" style="stroke: #000000; stroke-width: 0.8"/>
      </g>
     </g>
     <g id="text_6">
      <!-- 50 -->
      <g transform="translate(314.969217 322.182437) scale(0.1 -0.1)">
       <defs>
        <path id="DejaVuSans-35" d="M 691 4666 
L 3169 4666 
L 3169 4134 
L 1269 4134 
L 1269 2991 
Q 1406 3038 1543 3061 
Q 1681 3084 1819 3084 
Q 2600 3084 3056 2656 
Q 3513 2228 3513 1497 
Q 3513 744 3044 326 
Q 2575 -91 1722 -91 
Q 1428 -91 1123 -41 
Q 819 9 494 109 
L 494 744 
Q 775 591 1075 516 
Q 1375 441 1709 441 
Q 2250 441 2565 725 
Q 2881 1009 2881 1497 
Q 2881 1984 2565 2268 
Q 2250 2553 1709 2553 
Q 1456 2553 1204 2497 
Q 953 2441 691 2322 
L 691 4666 
z
" transform="scale(0.015625)"/>
       </defs>
       <use xlink:href="#DejaVuSans-35"/>
       <use xlink:href="#DejaVuSans-30" x="63.623047"/>
      </g>
     </g>
    </g>
    <g id="xtick_7">
     <g id="line2d_7">
      <g>
       <use xlink:href="#m5a69325668" x="371.432727" y="307.584" style="stroke: #000000; stroke-width: 0.8"/>
      </g>
     </g>
     <g id="text_7">
      <!-- 60 -->
      <g transform="translate(365.070227 322.182437) scale(0.1 -0.1)">
       <defs>
        <path id="DejaVuSans-36" d="M 2113 2584 
Q 1688 2584 1439 2293 
Q 1191 2003 1191 1497 
Q 1191 994 1439 701 
Q 1688 409 2113 409 
Q 2538 409 2786 701 
Q 3034 994 3034 1497 
Q 3034 2003 2786 2293 
Q 2538 2584 2113 2584 
z
M 3366 4563 
L 3366 3988 
Q 3128 4100 2886 4159 
Q 2644 4219 2406 4219 
Q 1781 4219 1451 3797 
Q 1122 3375 1075 2522 
Q 1259 2794 1537 2939 
Q 1816 3084 2150 3084 
Q 2853 3084 3261 2657 
Q 3669 2231 3669 1497 
Q 3669 778 3244 343 
Q 2819 -91 2113 -91 
Q 1303 -91 875 529 
Q 447 1150 447 2328 
Q 447 3434 972 4092 
Q 1497 4750 2381 4750 
Q 2619 4750 2861 4703 
Q 3103 4656 3366 4563 
z
" transform="scale(0.015625)"/>
       </defs>
       <use xlink:href="#DejaVuSans-36"/>
       <use xlink:href="#DejaVuSans-30" x="63.623047"/>
      </g>
     </g>
    </g>
   </g>
   <g id="matplotlib.axis_2">
    <g id="ytick_1">
     <g id="line2d_8">
      <defs>
       <path id="m6a46c0dbad" d="M 0 0 
L -3.5 0 
" style="stroke: #000000; stroke-width: 0.8"/>
      </defs>
      <g>
       <use xlink:href="#m6a46c0dbad" x="57.6" y="307.584" style="stroke: #000000; stroke-width: 0.8"/>
      </g>
     </g>
     <g id="text_8">
      <!-- 0 -->
      <g transform="translate(44.2375 311.383219) scale(0.1 -0.1)">
       <use xlink:href="#DejaVuSans-30"/>
      </g>
     </g>
    </g>
    <g id="ytick_2">
     <g id="line2d_9">
      <g>
       <use xlink:href="#m6a46c0dbad" x="57.6" y="266.004" style="stroke: #000000; stroke-width: 0.8"/>
      </g>
     </g>
     <g id="text_9">
      <!-- 10 -->
      <g transform="translate(37.875 269.803219) scale(0.1 -0.1)">
       <use xlink:href="#DejaVuSans-31"/>
       <use xlink:href="#DejaVuSans-30" x="63.623047"/>
      </g>
     </g>
    </g>
    <g id="ytick_3">
     <g id="line2d_10">
      <g>
       <use xlink:href="#m6a46c0dbad" x="57.6" y="224.424" style="stroke: #000000; stroke-width: 0.8"/>
      </g>
     </g>
     <g id="text_10">
      <!-- 20 -->
      <g transform="translate(37.875 228.223219) scale(0.1 -0.1)">
       <use xlink:href="#DejaVuSans-32"/>
       <use xlink:href="#DejaVuSans-30" x="63.623047"/>
      </g>
     </g>
    </g>
    <g id="ytick_4">
     <g id="line2d_11">
      <g>
       <use xlink:href="#m6a46c0dbad" x="57.6" y="182.844" style="stroke: #000000; stroke-width: 0.8"/>
      </g>
     </g>
     <g id="text_11">
      <!-- 30 -->
      <g transform="translate(37.875 186.643219) scale(0.1 -0.1)">
       <use xlink:href="#DejaVuSans-33"/>
       <use xlink:href="#DejaVuSans-30" x="63.623047"/>
      </g>
     </g>
    </g>
    <g id="ytick_5">
     <g id="line2d_12">
      <g>
       <use xlink:href="#m6a46c0dbad" x="57.6" y="141.264" style="stroke: #000000; stroke-width: 0.8"/>
      </g>
     </g>
     <g id="text_12">
      <!-- 40 -->
      <g transform="translate(37.875 145.063219) scale(0.1 -0.1)">
       <use xlink:href="#DejaVuSans-34"/>
       <use xlink:href="#DejaVuSans-30" x="63.623047"/>
      </g>
     </g>
    </g>
    <g id="ytick_6">
     <g id="line2d_13">
      <g>
       <use xlink:href="#m6a46c0dbad" x="57.6" y="99.684" style="stroke: #000000; stroke-width: 0.8"/>
      </g>
     </g>
     <g id="text_13">
      <!-- 50 -->
      <g transform="translate(37.875 103.483219) scale(0.1 -0.1)">
       <use xlink:href="#DejaVuSans-35"/>
       <use xlink:href="#DejaVuSans-30" x="63.623047"/>
      </g>
     </g>
    </g>
    <g id="ytick_7">
     <g id="line2d_14">
      <g>
       <use xlink:href="#m6a46c0dbad" x="57.6" y="58.104" style="stroke: #000000; stroke-width: 0.8"/>
      </g>
     </g>
     <g id="text_14">
      <!-- 60 -->
      <g transform="translate(37.875 61.903219) scale(0.1 -0.1)">
       <use xlink:href="#DejaVuSans-36"/>
       <use xlink:href="#DejaVuSans-30" x="63.623047"/>
      </g>
     </g>
    </g>
   </g>
   <g id="line2d_15">
    <path d="M 57.6 41.472 
L 414.72 41.472 
" clip-path="url(#pacde2cd7b1)" style="fill: none; stroke: #1f77b4; stroke-width: 1.5; stroke-linecap: square"/>
   </g>
   <g id="patch_393">
    <path d="M 57.6 307.584 
L 57.6 41.472 
" style="fill: none; stroke: #000000; stroke-width: 0.8; stroke-linejoin: miter; stroke-linecap: square"/>
   </g>
   <g id="patch_394">
    <path d="M 414.72 307.584 
L 414.72 41.472 
" style="fill: none; stroke: #000000; stroke-width: 0.8; stroke-linejoin: miter; stroke-linecap: square"/>
   </g>
   <g id="patch_395">
    <path d="M 57.6 307.584 
L 414.72 307.584 
" style="fill: none; stroke: #000000; stroke-width: 0.8; stroke-linejoin: miter; stroke-linecap: square"/>
   </g>
   <g id="patch_396">
    <path d="M 57.6 41.472 
L 414.72 41.472 
" style="fill: none; stroke: #000000; stroke-width: 0.8; stroke-linejoin: miter; stroke-linecap: square"/>
   </g>
   <g id="text_15">
    <!-- ATP8 alternative start codons distribution -->
    <g transform="translate(111.758437 35.472) scale(0.12 -0.12)">
     <defs>
      <path id="DejaVuSans-41" d="M 2188 4044 
L 1331 1722 
L 3047 1722 
L 2188 4044 
z
M 1831 4666 
L 2547 4666 
L 4325 0 
L 3669 0 
L 3244 1197 
L 1141 1197 
L 716 0 
L 50 0 
L 1831 4666 
z
" transform="scale(0.015625)"/>
      <path id="DejaVuSans-54" d="M -19 4666 
L 3928 4666 
L 3928 4134 
L 2272 4134 
L 2272 0 
L 1638 0 
L 1638 4134 
L -19 4134 
L -19 4666 
z
" transform="scale(0.015625)"/>
      <path id="DejaVuSans-50" d="M 1259 4147 
L 1259 2394 
L 2053 2394 
Q 2494 2394 2734 2622 
Q 2975 2850 2975 3272 
Q 2975 3691 2734 3919 
Q 2494 4147 2053 4147 
L 1259 4147 
z
M 628 4666 
L 2053 4666 
Q 2838 4666 3239 4311 
Q 3641 3956 3641 3272 
Q 3641 2581 3239 2228 
Q 2838 1875 2053 1875 
L 1259 1875 
L 1259 0 
L 628 0 
L 628 4666 
z
" transform="scale(0.015625)"/>
      <path id="DejaVuSans-38" d="M 2034 2216 
Q 1584 2216 1326 1975 
Q 1069 1734 1069 1313 
Q 1069 891 1326 650 
Q 1584 409 2034 409 
Q 2484 409 2743 651 
Q 3003 894 3003 1313 
Q 3003 1734 2745 1975 
Q 2488 2216 2034 2216 
z
M 1403 2484 
Q 997 2584 770 2862 
Q 544 3141 544 3541 
Q 544 4100 942 4425 
Q 1341 4750 2034 4750 
Q 2731 4750 3128 4425 
Q 3525 4100 3525 3541 
Q 3525 3141 3298 2862 
Q 3072 2584 2669 2484 
Q 3125 2378 3379 2068 
Q 3634 1759 3634 1313 
Q 3634 634 3220 271 
Q 2806 -91 2034 -91 
Q 1263 -91 848 271 
Q 434 634 434 1313 
Q 434 1759 690 2068 
Q 947 2378 1403 2484 
z
M 1172 3481 
Q 1172 3119 1398 2916 
Q 1625 2713 2034 2713 
Q 2441 2713 2670 2916 
Q 2900 3119 2900 3481 
Q 2900 3844 2670 4047 
Q 2441 4250 2034 4250 
Q 1625 4250 1398 4047 
Q 1172 3844 1172 3481 
z
" transform="scale(0.015625)"/>
      <path id="DejaVuSans-20" transform="scale(0.015625)"/>
      <path id="DejaVuSans-61" d="M 2194 1759 
Q 1497 1759 1228 1600 
Q 959 1441 959 1056 
Q 959 750 1161 570 
Q 1363 391 1709 391 
Q 2188 391 2477 730 
Q 2766 1069 2766 1631 
L 2766 1759 
L 2194 1759 
z
M 3341 1997 
L 3341 0 
L 2766 0 
L 2766 531 
Q 2569 213 2275 61 
Q 1981 -91 1556 -91 
Q 1019 -91 701 211 
Q 384 513 384 1019 
Q 384 1609 779 1909 
Q 1175 2209 1959 2209 
L 2766 2209 
L 2766 2266 
Q 2766 2663 2505 2880 
Q 2244 3097 1772 3097 
Q 1472 3097 1187 3025 
Q 903 2953 641 2809 
L 641 3341 
Q 956 3463 1253 3523 
Q 1550 3584 1831 3584 
Q 2591 3584 2966 3190 
Q 3341 2797 3341 1997 
z
" transform="scale(0.015625)"/>
      <path id="DejaVuSans-6c" d="M 603 4863 
L 1178 4863 
L 1178 0 
L 603 0 
L 603 4863 
z
" transform="scale(0.015625)"/>
      <path id="DejaVuSans-74" d="M 1172 4494 
L 1172 3500 
L 2356 3500 
L 2356 3053 
L 1172 3053 
L 1172 1153 
Q 1172 725 1289 603 
Q 1406 481 1766 481 
L 2356 481 
L 2356 0 
L 1766 0 
Q 1100 0 847 248 
Q 594 497 594 1153 
L 594 3053 
L 172 3053 
L 172 3500 
L 594 3500 
L 594 4494 
L 1172 4494 
z
" transform="scale(0.015625)"/>
      <path id="DejaVuSans-65" d="M 3597 1894 
L 3597 1613 
L 953 1613 
Q 991 1019 1311 708 
Q 1631 397 2203 397 
Q 2534 397 2845 478 
Q 3156 559 3463 722 
L 3463 178 
Q 3153 47 2828 -22 
Q 2503 -91 2169 -91 
Q 1331 -91 842 396 
Q 353 884 353 1716 
Q 353 2575 817 3079 
Q 1281 3584 2069 3584 
Q 2775 3584 3186 3129 
Q 3597 2675 3597 1894 
z
M 3022 2063 
Q 3016 2534 2758 2815 
Q 2500 3097 2075 3097 
Q 1594 3097 1305 2825 
Q 1016 2553 972 2059 
L 3022 2063 
z
" transform="scale(0.015625)"/>
      <path id="DejaVuSans-72" d="M 2631 2963 
Q 2534 3019 2420 3045 
Q 2306 3072 2169 3072 
Q 1681 3072 1420 2755 
Q 1159 2438 1159 1844 
L 1159 0 
L 581 0 
L 581 3500 
L 1159 3500 
L 1159 2956 
Q 1341 3275 1631 3429 
Q 1922 3584 2338 3584 
Q 2397 3584 2469 3576 
Q 2541 3569 2628 3553 
L 2631 2963 
z
" transform="scale(0.015625)"/>
      <path id="DejaVuSans-6e" d="M 3513 2113 
L 3513 0 
L 2938 0 
L 2938 2094 
Q 2938 2591 2744 2837 
Q 2550 3084 2163 3084 
Q 1697 3084 1428 2787 
Q 1159 2491 1159 1978 
L 1159 0 
L 581 0 
L 581 3500 
L 1159 3500 
L 1159 2956 
Q 1366 3272 1645 3428 
Q 1925 3584 2291 3584 
Q 2894 3584 3203 3211 
Q 3513 2838 3513 2113 
z
" transform="scale(0.015625)"/>
      <path id="DejaVuSans-69" d="M 603 3500 
L 1178 3500 
L 1178 0 
L 603 0 
L 603 3500 
z
M 603 4863 
L 1178 4863 
L 1178 4134 
L 603 4134 
L 603 4863 
z
" transform="scale(0.015625)"/>
      <path id="DejaVuSans-76" d="M 191 3500 
L 800 3500 
L 1894 563 
L 2988 3500 
L 3597 3500 
L 2284 0 
L 1503 0 
L 191 3500 
z
" transform="scale(0.015625)"/>
      <path id="DejaVuSans-73" d="M 2834 3397 
L 2834 2853 
Q 2591 2978 2328 3040 
Q 2066 3103 1784 3103 
Q 1356 3103 1142 2972 
Q 928 2841 928 2578 
Q 928 2378 1081 2264 
Q 1234 2150 1697 2047 
L 1894 2003 
Q 2506 1872 2764 1633 
Q 3022 1394 3022 966 
Q 3022 478 2636 193 
Q 2250 -91 1575 -91 
Q 1294 -91 989 -36 
Q 684 19 347 128 
L 347 722 
Q 666 556 975 473 
Q 1284 391 1588 391 
Q 1994 391 2212 530 
Q 2431 669 2431 922 
Q 2431 1156 2273 1281 
Q 2116 1406 1581 1522 
L 1381 1569 
Q 847 1681 609 1914 
Q 372 2147 372 2553 
Q 372 3047 722 3315 
Q 1072 3584 1716 3584 
Q 2034 3584 2315 3537 
Q 2597 3491 2834 3397 
z
" transform="scale(0.015625)"/>
      <path id="DejaVuSans-63" d="M 3122 3366 
L 3122 2828 
Q 2878 2963 2633 3030 
Q 2388 3097 2138 3097 
Q 1578 3097 1268 2742 
Q 959 2388 959 1747 
Q 959 1106 1268 751 
Q 1578 397 2138 397 
Q 2388 397 2633 464 
Q 2878 531 3122 666 
L 3122 134 
Q 2881 22 2623 -34 
Q 2366 -91 2075 -91 
Q 1284 -91 818 406 
Q 353 903 353 1747 
Q 353 2603 823 3093 
Q 1294 3584 2113 3584 
Q 2378 3584 2631 3529 
Q 2884 3475 3122 3366 
z
" transform="scale(0.015625)"/>
      <path id="DejaVuSans-6f" d="M 1959 3097 
Q 1497 3097 1228 2736 
Q 959 2375 959 1747 
Q 959 1119 1226 758 
Q 1494 397 1959 397 
Q 2419 397 2687 759 
Q 2956 1122 2956 1747 
Q 2956 2369 2687 2733 
Q 2419 3097 1959 3097 
z
M 1959 3584 
Q 2709 3584 3137 3096 
Q 3566 2609 3566 1747 
Q 3566 888 3137 398 
Q 2709 -91 1959 -91 
Q 1206 -91 779 398 
Q 353 888 353 1747 
Q 353 2609 779 3096 
Q 1206 3584 1959 3584 
z
" transform="scale(0.015625)"/>
      <path id="DejaVuSans-64" d="M 2906 2969 
L 2906 4863 
L 3481 4863 
L 3481 0 
L 2906 0 
L 2906 525 
Q 2725 213 2448 61 
Q 2172 -91 1784 -91 
Q 1150 -91 751 415 
Q 353 922 353 1747 
Q 353 2572 751 3078 
Q 1150 3584 1784 3584 
Q 2172 3584 2448 3432 
Q 2725 3281 2906 2969 
z
M 947 1747 
Q 947 1113 1208 752 
Q 1469 391 1925 391 
Q 2381 391 2643 752 
Q 2906 1113 2906 1747 
Q 2906 2381 2643 2742 
Q 2381 3103 1925 3103 
Q 1469 3103 1208 2742 
Q 947 2381 947 1747 
z
" transform="scale(0.015625)"/>
      <path id="DejaVuSans-62" d="M 3116 1747 
Q 3116 2381 2855 2742 
Q 2594 3103 2138 3103 
Q 1681 3103 1420 2742 
Q 1159 2381 1159 1747 
Q 1159 1113 1420 752 
Q 1681 391 2138 391 
Q 2594 391 2855 752 
Q 3116 1113 3116 1747 
z
M 1159 2969 
Q 1341 3281 1617 3432 
Q 1894 3584 2278 3584 
Q 2916 3584 3314 3078 
Q 3713 2572 3713 1747 
Q 3713 922 3314 415 
Q 2916 -91 2278 -91 
Q 1894 -91 1617 61 
Q 1341 213 1159 525 
L 1159 0 
L 581 0 
L 581 4863 
L 1159 4863 
L 1159 2969 
z
" transform="scale(0.015625)"/>
      <path id="DejaVuSans-75" d="M 544 1381 
L 544 3500 
L 1119 3500 
L 1119 1403 
Q 1119 906 1312 657 
Q 1506 409 1894 409 
Q 2359 409 2629 706 
Q 2900 1003 2900 1516 
L 2900 3500 
L 3475 3500 
L 3475 0 
L 2900 0 
L 2900 538 
Q 2691 219 2414 64 
Q 2138 -91 1772 -91 
Q 1169 -91 856 284 
Q 544 659 544 1381 
z
M 1991 3584 
L 1991 3584 
z
" transform="scale(0.015625)"/>
     </defs>
     <use xlink:href="#DejaVuSans-41"/>
     <use xlink:href="#DejaVuSans-54" x="60.658203"/>
     <use xlink:href="#DejaVuSans-50" x="121.742188"/>
     <use xlink:href="#DejaVuSans-38" x="182.044922"/>
     <use xlink:href="#DejaVuSans-20" x="245.667969"/>
     <use xlink:href="#DejaVuSans-61" x="277.455078"/>
     <use xlink:href="#DejaVuSans-6c" x="338.734375"/>
     <use xlink:href="#DejaVuSans-74" x="366.517578"/>
     <use xlink:href="#DejaVuSans-65" x="405.726562"/>
     <use xlink:href="#DejaVuSans-72" x="467.25"/>
     <use xlink:href="#DejaVuSans-6e" x="506.613281"/>
     <use xlink:href="#DejaVuSans-61" x="569.992188"/>
     <use xlink:href="#DejaVuSans-74" x="631.271484"/>
     <use xlink:href="#DejaVuSans-69" x="670.480469"/>
     <use xlink:href="#DejaVuSans-76" x="698.263672"/>
     <use xlink:href="#DejaVuSans-65" x="757.443359"/>
     <use xlink:href="#DejaVuSans-20" x="818.966797"/>
     <use xlink:href="#DejaVuSans-73" x="850.753906"/>
     <use xlink:href="#DejaVuSans-74" x="902.853516"/>
     <use xlink:href="#DejaVuSans-61" x="942.0625"/>
     <use xlink:href="#DejaVuSans-72" x="1003.341797"/>
     <use xlink:href="#DejaVuSans-74" x="1044.455078"/>
     <use xlink:href="#DejaVuSans-20" x="1083.664062"/>
     <use xlink:href="#DejaVuSans-63" x="1115.451172"/>
     <use xlink:href="#DejaVuSans-6f" x="1170.431641"/>
     <use xlink:href="#DejaVuSans-64" x="1231.613281"/>
     <use xlink:href="#DejaVuSans-6f" x="1295.089844"/>
     <use xlink:href="#DejaVuSans-6e" x="1356.271484"/>
     <use xlink:href="#DejaVuSans-73" x="1419.650391"/>
     <use xlink:href="#DejaVuSans-20" x="1471.75"/>
     <use xlink:href="#DejaVuSans-64" x="1503.537109"/>
     <use xlink:href="#DejaVuSans-69" x="1567.013672"/>
     <use xlink:href="#DejaVuSans-73" x="1594.796875"/>
     <use xlink:href="#DejaVuSans-74" x="1646.896484"/>
     <use xlink:href="#DejaVuSans-72" x="1686.105469"/>
     <use xlink:href="#DejaVuSans-69" x="1727.21875"/>
     <use xlink:href="#DejaVuSans-62" x="1755.001953"/>
     <use xlink:href="#DejaVuSans-75" x="1818.478516"/>
     <use xlink:href="#DejaVuSans-74" x="1881.857422"/>
     <use xlink:href="#DejaVuSans-69" x="1921.066406"/>
     <use xlink:href="#DejaVuSans-6f" x="1948.849609"/>
     <use xlink:href="#DejaVuSans-6e" x="2010.03125"/>
    </g>
   </g>
   <g id="legend_1">
    <g id="patch_397">
     <path d="M 354.477813 137.54075 
L 407.72 137.54075 
Q 409.72 137.54075 409.72 135.54075 
L 409.72 48.472 
Q 409.72 46.472 407.72 46.472 
L 354.477813 46.472 
Q 352.477813 46.472 352.477813 48.472 
L 352.477813 135.54075 
Q 352.477813 137.54075 354.477813 137.54075 
z
" style="fill: #ffffff; opacity: 0.8; stroke: #cccccc; stroke-linejoin: miter"/>
    </g>
    <g id="patch_398">
     <path d="M 356.477813 58.070438 
L 376.477813 58.070438 
L 376.477813 51.070438 
L 356.477813 51.070438 
z
" style="fill: #1f77b4"/>
    </g>
    <g id="text_16">
     <!-- ATG -->
     <g transform="translate(384.477813 58.070438) scale(0.1 -0.1)">
      <defs>
       <path id="DejaVuSans-47" d="M 3809 666 
L 3809 1919 
L 2778 1919 
L 2778 2438 
L 4434 2438 
L 4434 434 
Q 4069 175 3628 42 
Q 3188 -91 2688 -91 
Q 1594 -91 976 548 
Q 359 1188 359 2328 
Q 359 3472 976 4111 
Q 1594 4750 2688 4750 
Q 3144 4750 3555 4637 
Q 3966 4525 4313 4306 
L 4313 3634 
Q 3963 3931 3569 4081 
Q 3175 4231 2741 4231 
Q 1884 4231 1454 3753 
Q 1025 3275 1025 2328 
Q 1025 1384 1454 906 
Q 1884 428 2741 428 
Q 3075 428 3337 486 
Q 3600 544 3809 666 
z
" transform="scale(0.015625)"/>
      </defs>
      <use xlink:href="#DejaVuSans-41"/>
      <use xlink:href="#DejaVuSans-54" x="60.658203"/>
      <use xlink:href="#DejaVuSans-47" x="121.742188"/>
     </g>
    </g>
    <g id="patch_399">
     <path d="M 356.477813 72.748563 
L 376.477813 72.748563 
L 376.477813 65.748563 
L 356.477813 65.748563 
z
" style="fill: #ff7f0e"/>
    </g>
    <g id="text_17">
     <!-- ATA -->
     <g transform="translate(384.477813 72.748563) scale(0.1 -0.1)">
      <use xlink:href="#DejaVuSans-41"/>
      <use xlink:href="#DejaVuSans-54" x="60.658203"/>
      <use xlink:href="#DejaVuSans-41" x="113.992188"/>
     </g>
    </g>
    <g id="patch_400">
     <path d="M 356.477813 87.426688 
L 376.477813 87.426688 
L 376.477813 80.426688 
L 356.477813 80.426688 
z
" style="fill: #2ca02c"/>
    </g>
    <g id="text_18">
     <!-- ATT -->
     <g transform="translate(384.477813 87.426688) scale(0.1 -0.1)">
      <use xlink:href="#DejaVuSans-41"/>
      <use xlink:href="#DejaVuSans-54" x="60.658203"/>
      <use xlink:href="#DejaVuSans-54" x="119.992188"/>
     </g>
    </g>
    <g id="patch_401">
     <path d="M 356.477813 102.104813 
L 376.477813 102.104813 
L 376.477813 95.104813 
L 356.477813 95.104813 
z
" style="fill: #d62728"/>
    </g>
    <g id="text_19">
     <!-- ATC -->
     <g transform="translate(384.477813 102.104813) scale(0.1 -0.1)">
      <defs>
       <path id="DejaVuSans-43" d="M 4122 4306 
L 4122 3641 
Q 3803 3938 3442 4084 
Q 3081 4231 2675 4231 
Q 1875 4231 1450 3742 
Q 1025 3253 1025 2328 
Q 1025 1406 1450 917 
Q 1875 428 2675 428 
Q 3081 428 3442 575 
Q 3803 722 4122 1019 
L 4122 359 
Q 3791 134 3420 21 
Q 3050 -91 2638 -91 
Q 1578 -91 968 557 
Q 359 1206 359 2328 
Q 359 3453 968 4101 
Q 1578 4750 2638 4750 
Q 3056 4750 3426 4639 
Q 3797 4528 4122 4306 
z
" transform="scale(0.015625)"/>
      </defs>
      <use xlink:href="#DejaVuSans-41"/>
      <use xlink:href="#DejaVuSans-54" x="60.658203"/>
      <use xlink:href="#DejaVuSans-43" x="115.867188"/>
     </g>
    </g>
    <g id="patch_402">
     <path d="M 356.477813 116.782938 
L 376.477813 116.782938 
L 376.477813 109.782938 
L 356.477813 109.782938 
z
" style="fill: #9467bd"/>
    </g>
    <g id="text_20">
     <!-- GTG -->
     <g transform="translate(384.477813 116.782938) scale(0.1 -0.1)">
      <use xlink:href="#DejaVuSans-47"/>
      <use xlink:href="#DejaVuSans-54" x="73.865234"/>
      <use xlink:href="#DejaVuSans-47" x="134.949219"/>
     </g>
    </g>
    <g id="patch_403">
     <path d="M 356.477813 131.461063 
L 376.477813 131.461063 
L 376.477813 124.461063 
L 356.477813 124.461063 
z
" style="fill: #8c564b"/>
    </g>
    <g id="text_21">
     <!-- TTG -->
     <g transform="translate(384.477813 131.461063) scale(0.1 -0.1)">
      <use xlink:href="#DejaVuSans-54"/>
      <use xlink:href="#DejaVuSans-54" x="59.333984"/>
      <use xlink:href="#DejaVuSans-47" x="120.417969"/>
     </g>
    </g>
   </g>
  </g>
 </g>
 <defs>
  <clipPath id="pacde2cd7b1">
   <rect x="57.6" y="41.472" width="357.12" height="266.112"/>
  </clipPath>
 </defs>
</svg>
